<svg xmlns="http://www.w3.org/2000/svg" version="1.1" xmlns:xlink="http://www.w3.org/1999/xlink" width="512" height="512" x="0" y="0" viewBox="0 0 512 512" style="enable-background:new 0 0 512 512" xml:space="preserve" class=""><g><path d="m464.732 455.948-52.284-50.734c-3.185-3.092-7.38-4.744-11.85-4.691-2.232.034-4.388.5-6.373 1.358l-20.204-19.825c9.449-15.58 14.895-33.847 14.895-53.361 0-20.246-5.864-39.145-15.976-55.099V66.991a8 8 0 0 0-2.343-5.657l-50.99-50.991A8 8 0 0 0 313.95 8H50.222a8 8 0 0 0-8 8v407.903a8 8 0 0 0 8 8H364.94c.371 0 .733-.034 1.09-.083a16.76 16.76 0 0 0-.701 5.05c.067 4.455 1.858 8.611 5.044 11.702l52.286 50.736a16.6 16.6 0 0 0 11.596 4.693c4.35 0 8.695-1.688 11.955-5.048l18.878-19.454c6.392-6.588 6.234-17.152-.356-23.551zM198.497 328.694c0-48.088 39.122-87.21 87.209-87.21s87.209 39.122 87.209 87.21c0 48.087-39.122 87.209-87.209 87.209s-87.209-39.122-87.209-87.209zm178.105 89.542-17.441-17.116a104.572 104.572 0 0 0 5.407-5.925l17.618 17.287zM321.95 35.314l23.677 23.677H321.95zM58.222 415.903V24H305.95v42.991a8 8 0 0 0 8 8h42.99v179.085c-18.537-17.704-43.638-28.592-71.233-28.592-46.56 0-86.011 30.993-98.823 73.43h-72.438a8 8 0 0 0 0 16h68.974a103.739 103.739 0 0 0-.922 13.78c0 8.66 1.078 17.072 3.096 25.114h-71.148a8 8 0 0 0 0 16h76.604c8.294 19.022 22.157 35.078 39.52 46.095zm288.822-4.257 4.338 4.257h-10.539a103.471 103.471 0 0 0 6.201-4.257zm106.56 56.711-18.877 19.454a.68.68 0 0 1-.927.014l-52.286-50.736a.628.628 0 0 1-.188-.46.631.631 0 0 1 .174-.466l18.877-19.454a.625.625 0 0 1 .46-.188h.013c.181 0 .333.059.453.175l52.284 50.733a.68.68 0 0 1 .017.928zM285.707 405.06c42.108 0 76.366-34.257 76.366-76.365s-34.258-76.366-76.366-76.366-76.366 34.258-76.366 76.366 34.257 76.365 76.366 76.365zm0-136.732c33.286 0 60.366 27.08 60.366 60.366 0 33.285-27.08 60.365-60.366 60.365s-60.366-27.08-60.366-60.365c-.001-33.286 27.079-60.366 60.366-60.366zm-171.41-78.501c.247.427.512.845.787 1.258a24.923 24.923 0 0 0-.45 4.699c0 13.756 11.191 24.947 24.947 24.947 11.345 0 20.939-7.615 23.955-18a135.18 135.18 0 0 0 6.134-1.162c7.859 24.549 20.583 42.019 37.744 42.019 17.162 0 29.886-17.472 37.745-42.024 2.788.601 5.525 1.109 8.2 1.512 5.089.767 9.859 1.146 14.286 1.146 15.968-.001 27.426-4.938 32.886-14.396.524-.907.967-1.862 1.367-2.838 9.15-3.701 15.625-12.672 15.625-23.133 0-13.756-11.191-24.947-24.947-24.947a24.86 24.86 0 0 0-6.332.817 135.557 135.557 0 0 0-3.185-3.652 132.483 132.483 0 0 0 5.36-6.293c14.785-18.537 19.086-35.397 12.112-47.477s-23.725-16.785-47.172-13.25c-2.675.403-5.412.911-8.2 1.512-7.859-24.552-20.583-42.024-37.745-42.024-5.987 0-14.505 2.314-22.925 12.519a24.978 24.978 0 0 0-4.639-.439c-13.755 0-24.946 11.191-24.946 24.946 0 .912.052 1.812.148 2.699-20.123-1.859-34.352 2.946-40.755 14.037-8.59 14.879.207 34.661 17.576 53.761-17.369 19.102-26.166 38.884-17.576 53.763zm25.284 14.903c-4.933 0-8.947-4.014-8.947-8.947s4.014-8.947 8.947-8.947 8.947 4.014 8.947 8.947-4.014 8.947-8.947 8.947zm23.198-18.105c-3.659-9.236-12.675-15.789-23.198-15.789a24.783 24.783 0 0 0-12.279 3.244c1.211-6.911 6.471-16.336 15.82-26.802 5.738 5.231 12.016 10.32 18.638 15.145.865 8.122 2.128 16.08 3.782 23.645-.927.195-1.853.389-2.763.557zm18.089-96.136c.262-.01.523-.028.783-.046 2.215.727 4.453 1.514 6.709 2.352a249.833 249.833 0 0 0-8.911 5.152c.429-2.534.902-5.022 1.419-7.458zm11.021 18.686a245.542 245.542 0 0 1 15.513-8.231 242.74 242.74 0 0 1 15.537 8.231 241.53 241.53 0 0 1 14.914 9.361 251.347 251.347 0 0 1-.001 35.083 246.449 246.449 0 0 1-14.912 9.337 242.75 242.75 0 0 1-15.544 8.228 245.853 245.853 0 0 1-15.506-8.228 250.807 250.807 0 0 1-14.911-9.319 250.572 250.572 0 0 1-.615-17.572c0-5.945.214-11.825.63-17.582a251.11 251.11 0 0 1 14.895-9.308zm34.525-16.394a183.06 183.06 0 0 1 7.551-2.626c.539 2.521 1.04 5.13 1.494 7.834a262.018 262.018 0 0 0-4.52-2.67c-1.5-.866-3.012-1.704-4.525-2.538zm27.996 38.137a186.723 186.723 0 0 1 5.974 5.169 183.883 183.883 0 0 1-5.974 5.158 245.728 245.728 0 0 0 0-10.327zm-18.95 43.224a182.452 182.452 0 0 1-1.494 7.834 183.275 183.275 0 0 1-7.535-2.621c1.504-.83 3.008-1.676 4.51-2.543a273.84 273.84 0 0 0 4.519-2.67zm-47.09 5.2a185.004 185.004 0 0 1-7.512 2.606 182.012 182.012 0 0 1-1.49-7.812c1.5.909 3.007 1.802 4.521 2.676 1.491.861 2.985 1.704 4.481 2.53zm-27.949-38.024a182.266 182.266 0 0 1-6.085-5.253 182.326 182.326 0 0 1 6.086-5.254 262.115 262.115 0 0 0-.059 5.254c.001 1.748.021 3.5.058 5.253zm46.994 86.27c-7.216 0-16.014-10.797-22.401-30.137 7.303-2.322 14.816-5.199 22.422-8.604 7.58 3.386 15.088 6.265 22.386 8.588-6.388 19.35-15.189 30.153-22.407 30.153zm48.331-40.333a117.376 117.376 0 0 1-6.462-1.176c1.65-7.547 2.912-15.485 3.777-23.588 6.729-4.873 12.983-9.937 18.65-15.097.373.417.753.833 1.115 1.249a24.818 24.818 0 0 0-5.196 15.213c0 9.684 5.55 18.091 13.633 22.222-5.63 2.335-14.641 2.818-25.517 1.177zm45.778-23.399c0 4.933-4.014 8.946-8.947 8.946s-8.946-4.013-8.946-8.946 4.013-8.947 8.946-8.947 8.947 4.014 8.947 8.947zm-45.778-78.98c15.772-2.378 27.623-.298 30.929 5.428 3.307 5.727-.818 17.03-10.764 29.5a117.37 117.37 0 0 1-4.181 4.93c-5.668-5.165-11.923-10.234-18.672-15.116-.865-8.095-2.126-16.025-3.775-23.565 2.194-.459 4.355-.859 6.463-1.177zm-48.331-40.334c7.218 0 16.019 10.803 22.407 30.154-7.308 2.326-14.827 5.21-22.418 8.602a233.133 233.133 0 0 0-7.351-3.12 24.804 24.804 0 0 0 4.745-14.61c0-6.253-2.318-11.971-6.133-16.354 2.495-2.541 5.54-4.672 8.75-4.672zm-27.565 12.08c4.933 0 8.947 4.013 8.947 8.946s-4.014 8.947-8.947 8.947-8.946-4.014-8.946-8.947 4.013-8.946 8.946-8.946zm-51.697 33.682c3.808-6.596 18.35-8.229 37.304-4.273-1.64 7.512-2.896 15.474-3.751 23.715-6.602 4.813-12.861 9.889-18.584 15.106-13.609-15.236-18.583-28.288-14.969-34.548zm79.262 70.708c13.756 0 24.947-11.191 24.947-24.947 0-13.755-11.191-24.946-24.947-24.946s-24.947 11.191-24.947 24.946c0 13.756 11.191 24.947 24.947 24.947zm0-33.893c4.933 0 8.947 4.013 8.947 8.946s-4.014 8.947-8.947 8.947-8.947-4.014-8.947-8.947 4.013-8.946 8.947-8.946z" fill="#d2853d" opacity="1" data-original="#000000" class=""></path></g></svg>