<?xml version="1.0" encoding="UTF-8"?>
<svg id="Layer_1" data-name="Layer 1" xmlns="http://www.w3.org/2000/svg" viewBox="0 0 1108 680">
  <g>
    <path d="M300.13,472.97h-17.45c-2.54,0-4.59,2.05-4.59,4.59s2.05,4.59,4.59,4.59h17.45c2.54,0,4.59-2.06,4.59-4.59s-2.05-4.59-4.59-4.59Z" style="fill: #6f84de;"/>
    <path d="M263.86,472.97h-60.23c-2.54,0-4.59,2.05-4.59,4.59s2.06,4.59,4.59,4.59h60.23c2.54,0,4.59-2.06,4.59-4.59,0-2.54-2.05-4.59-4.59-4.59Z" style="fill: #6f84de;"/>
    <path d="M376.64,472.97h-58c-2.54,0-4.59,2.05-4.59,4.59s2.05,4.59,4.59,4.59h58c2.54,0,4.59-2.06,4.59-4.59,0-2.54-2.06-4.59-4.59-4.59Z" style="fill: #6f84de;"/>
    <path d="M263.25,428.9h-17.45c-2.54,0-4.59,2.05-4.59,4.59s2.05,4.59,4.59,4.59h17.45c2.54,0,4.59-2.05,4.59-4.59,0-2.54-2.05-4.59-4.59-4.59Z" style="fill: #6f84de;"/>
    <path d="M186.73,495h-17.45c-2.54,0-4.59,2.05-4.59,4.59s2.05,4.59,4.59,4.59h17.45c2.54,0,4.59-2.06,4.59-4.59s-2.06-4.59-4.59-4.59Z" style="fill: #6f84de;"/>
    <path d="M186.73,539.08h-17.45c-2.54,0-4.59,2.05-4.59,4.59s2.05,4.59,4.59,4.59h17.45c2.54,0,4.59-2.06,4.59-4.59s-2.06-4.59-4.59-4.59Z" style="fill: #6f84de;"/>
    <path d="M342.3,428.9h-60.23c-2.54,0-4.59,2.05-4.59,4.59s2.05,4.59,4.59,4.59h60.23c2.54,0,4.59-2.05,4.59-4.59s-2.06-4.59-4.59-4.59Z" style="fill: #6f84de;"/>
    <path d="M319.91,450.93h-17.45c-2.54,0-4.59,2.05-4.59,4.59s2.05,4.59,4.59,4.59h17.45c2.54,0,4.59-2.05,4.59-4.59s-2.05-4.59-4.59-4.59Z" style="fill: #6f84de;"/>
    <path d="M283.64,450.93h-60.23c-2.54,0-4.59,2.05-4.59,4.59s2.05,4.59,4.59,4.59h60.23c2.54,0,4.59-2.05,4.59-4.59s-2.05-4.59-4.59-4.59Z" style="fill: #6f84de;"/>
    <path d="M240.86,517.04h-17.45c-2.54,0-4.59,2.05-4.59,4.59s2.06,4.59,4.59,4.59h17.45c2.54,0,4.59-2.06,4.59-4.59,0-2.54-2.05-4.59-4.59-4.59Z" style="fill: #6f84de;"/>
    <path d="M319.91,517.04h-60.23c-2.54,0-4.59,2.05-4.59,4.59s2.05,4.59,4.59,4.59h60.23c2.54,0,4.59-2.06,4.59-4.59,0-2.54-2.05-4.59-4.59-4.59Z" style="fill: #6f84de;"/>
    <path d="M227.29,428.9h-58c-2.54,0-4.59,2.05-4.59,4.59s2.05,4.59,4.59,4.59h58c2.54,0,4.59-2.05,4.59-4.59s-2.06-4.59-4.59-4.59Z" style="fill: #6f84de;"/>
    <path d="M226.4,406.87h-57.11c-2.54,0-4.59,2.05-4.59,4.59s2.05,4.59,4.59,4.59h57.11c2.54,0,4.59-2.05,4.59-4.59s-2.05-4.59-4.59-4.59Z" style="fill: #6f84de;"/>
    <path d="M226.4,583.15h-57.11c-2.54,0-4.59,2.05-4.59,4.59s2.05,4.59,4.59,4.59h57.11c2.54,0,4.59-2.06,4.59-4.59s-2.05-4.59-4.59-4.59Z" style="fill: #6f84de;"/>
    <path d="M144.72,350.01c-.06-.29-.15-.58-.26-.86-.12-.27-.26-.54-.42-.79-.17-.25-.36-.49-.57-.7-.21-.21-.45-.4-.7-.57-.25-.17-.52-.31-.8-.42-.28-.12-.56-.21-.86-.26-.59-.12-1.21-.12-1.79,0-.29.06-.59.15-.86.26-.28.11-.54.25-.79.42-.25.17-.49.36-.7.57-.21.21-.4.45-.58.7-.17.24-.31.51-.42.79-.11.28-.2.57-.26.86-.06.29-.09.59-.09.89s.03.6.09.9c.06.29.15.58.26.86.12.28.26.55.42.79.17.25.36.49.58.7.21.21.45.4.7.57.24.17.51.31.79.42.28.11.57.2.86.26.29.06.59.09.89.09s.6-.03.9-.09c.29-.06.58-.15.86-.26.28-.12.54-.26.8-.42.25-.17.48-.36.7-.57.21-.21.4-.45.57-.7.17-.24.31-.51.42-.79.11-.28.2-.56.26-.86.06-.3.09-.6.09-.9s-.03-.6-.09-.89Z" style="fill: #6f84de;"/>
    <path d="M164.15,350.01c-.06-.29-.15-.58-.26-.86-.12-.28-.26-.54-.42-.79-.17-.25-.36-.49-.57-.7-.21-.21-.45-.4-.7-.57-.25-.17-.52-.31-.8-.42-.28-.12-.56-.21-.86-.26-.59-.12-1.21-.12-1.79,0-.29.06-.59.15-.86.26-.28.11-.54.25-.79.42-.25.17-.49.36-.7.57-.21.21-.4.45-.58.7-.17.24-.31.51-.42.79-.11.28-.2.57-.26.86-.06.29-.09.59-.09.89s.03.6.09.9c.06.29.15.58.26.86.12.28.26.55.42.79.17.25.36.49.58.7.21.21.45.4.7.57.24.17.51.31.79.42.28.11.57.2.86.26.29.06.59.09.89.09s.6-.03.9-.09c.29-.06.58-.15.86-.26.28-.12.54-.26.8-.42.25-.17.48-.36.7-.57.21-.21.4-.45.57-.7.17-.24.31-.51.42-.79.11-.28.2-.56.26-.86.06-.3.09-.6.09-.9s-.03-.6-.09-.89Z" style="fill: #6f84de;"/>
    <path d="M183.59,350.01c-.06-.29-.15-.59-.26-.86-.12-.28-.26-.54-.42-.79-.17-.25-.36-.49-.58-.7-.21-.21-.44-.4-.69-.57-.25-.17-.52-.31-.8-.42-.28-.12-.56-.21-.86-.26-.59-.12-1.21-.12-1.79,0-.29.06-.59.15-.86.26-.28.11-.54.25-.79.42-.25.17-.49.36-.7.57-.21.21-.4.45-.58.7-.17.24-.31.51-.42.79-.11.28-.2.57-.26.86-.06.29-.09.59-.09.89s.03.6.09.9c.06.29.15.58.26.86.12.28.26.55.42.79.17.25.36.49.58.7.21.21.45.4.7.57.24.17.51.31.79.42.28.11.57.2.86.26.29.06.59.09.89.09s.6-.03.9-.09c.29-.06.58-.15.86-.26.28-.12.54-.26.8-.42.25-.17.48-.36.69-.57.21-.21.4-.45.58-.7.17-.24.31-.51.42-.79.11-.28.2-.56.26-.86.06-.3.09-.6.09-.9,0-.3-.03-.6-.09-.89Z" style="fill: #6f84de;"/>
    <path d="M336.1,346.31h-133.14c-2.54,0-4.59,2.05-4.59,4.59s2.05,4.59,4.59,4.59h133.14c2.54,0,4.59-2.05,4.59-4.59s-2.05-4.59-4.59-4.59Z" style="fill: #6f84de;"/>
    <path d="M377.11,346.31h-17.45c-2.54,0-4.59,2.05-4.59,4.59s2.05,4.59,4.59,4.59h17.45c2.54,0,4.59-2.05,4.59-4.59s-2.05-4.59-4.59-4.59Z" style="fill: #6f84de;"/>
    <path d="M149.98,428.9h-9.15c-2.54,0-4.59,2.05-4.59,4.59s2.05,4.59,4.59,4.59h9.15c2.54,0,4.59-2.05,4.59-4.59,0-2.54-2.05-4.59-4.59-4.59Z" style="fill: #6f84de;"/>
    <path d="M149.98,406.86h-9.15c-2.54,0-4.59,2.05-4.59,4.59s2.05,4.59,4.59,4.59h9.15c2.54,0,4.59-2.05,4.59-4.59s-2.05-4.59-4.59-4.59Z" style="fill: #6f84de;"/>
    <path d="M149.98,450.93h-9.15c-2.54,0-4.59,2.05-4.59,4.59s2.05,4.59,4.59,4.59h9.15c2.54,0,4.59-2.05,4.59-4.59s-2.05-4.59-4.59-4.59Z" style="fill: #6f84de;"/>
    <path d="M149.98,472.97h-9.15c-2.54,0-4.59,2.05-4.59,4.59s2.05,4.59,4.59,4.59h9.15c2.54,0,4.59-2.06,4.59-4.59,0-2.54-2.05-4.59-4.59-4.59Z" style="fill: #6f84de;"/>
    <path d="M149.98,495h-9.15c-2.54,0-4.59,2.05-4.59,4.59s2.05,4.59,4.59,4.59h9.15c2.54,0,4.59-2.06,4.59-4.59,0-2.54-2.05-4.59-4.59-4.59Z" style="fill: #6f84de;"/>
    <path d="M149.98,517.04h-9.15c-2.54,0-4.59,2.05-4.59,4.59s2.05,4.59,4.59,4.59h9.15c2.54,0,4.59-2.06,4.59-4.59,0-2.54-2.05-4.59-4.59-4.59Z" style="fill: #6f84de;"/>
    <path d="M149.98,539.08h-9.15c-2.54,0-4.59,2.05-4.59,4.59s2.05,4.59,4.59,4.59h9.15c2.54,0,4.59-2.06,4.59-4.59,0-2.54-2.05-4.59-4.59-4.59Z" style="fill: #6f84de;"/>
    <path d="M149.98,561.11h-9.15c-2.54,0-4.59,2.05-4.59,4.59s2.05,4.59,4.59,4.59h9.15c2.54,0,4.59-2.06,4.59-4.59,0-2.54-2.05-4.59-4.59-4.59Z" style="fill: #6f84de;"/>
    <path d="M149.98,583.15h-9.15c-2.54,0-4.59,2.05-4.59,4.59s2.05,4.59,4.59,4.59h9.15c2.54,0,4.59-2.06,4.59-4.59,0-2.54-2.05-4.59-4.59-4.59Z" style="fill: #6f84de;"/>
    <path d="M186.73,472.97h-17.45c-2.54,0-4.59,2.05-4.59,4.59s2.05,4.59,4.59,4.59h17.45c2.54,0,4.59-2.06,4.59-4.59s-2.06-4.59-4.59-4.59Z" style="fill: #6f84de;"/>
    <path d="M263.25,561.11h-17.45c-2.54,0-4.59,2.05-4.59,4.59s2.05,4.59,4.59,4.59h17.45c2.54,0,4.59-2.06,4.59-4.59,0-2.54-2.05-4.59-4.59-4.59Z" style="fill: #6f84de;"/>
    <path d="M342.3,561.11h-60.23c-2.54,0-4.59,2.05-4.59,4.59s2.05,4.59,4.59,4.59h60.23c2.54,0,4.59-2.06,4.59-4.59,0-2.54-2.06-4.59-4.59-4.59Z" style="fill: #6f84de;"/>
    <path d="M227.29,561.11h-58c-2.54,0-4.59,2.05-4.59,4.59s2.05,4.59,4.59,4.59h58c2.54,0,4.59-2.06,4.59-4.59s-2.06-4.59-4.59-4.59Z" style="fill: #6f84de;"/>
    <path d="M376.64,561.11h-17.45c-2.54,0-4.59,2.05-4.59,4.59s2.05,4.59,4.59,4.59h17.45c2.54,0,4.59-2.06,4.59-4.59s-2.06-4.59-4.59-4.59Z" style="fill: #6f84de;"/>
    <path d="M388.77,316h-9.67c-2.54,0-4.59,2.05-4.59,4.59s2.05,4.59,4.59,4.59h9.67c9.83,0,17.84,8,17.84,17.84v33.6h-250.48c-2.54,0-4.59,2.05-4.59,4.59s2.05,4.59,4.59,4.59h250.48v169.19c0,2.54,2.05,4.59,4.59,4.59s4.59-2.06,4.59-4.59v-211.97c0-14.9-12.12-27.02-27.02-27.02Z" style="fill: #6f84de;"/>
    <path d="M411.2,571.82c-2.54,0-4.59,2.05-4.59,4.59v25.95c0,9.83-8,17.84-17.84,17.84H129.42c-9.83,0-17.84-8-17.84-17.84v-216.56h23.11c2.54,0,4.59-2.05,4.59-4.59s-2.05-4.59-4.59-4.59h-23.11v-33.6c0-9.84,8-17.84,17.84-17.84h228.26c2.54,0,4.59-2.05,4.59-4.59s-2.05-4.59-4.59-4.59h-228.26c-14.9,0-27.02,12.12-27.02,27.02v259.35c0,14.9,12.12,27.02,27.02,27.02h259.35c14.9,0,27.02-12.12,27.02-27.02v-25.95c0-2.54-2.06-4.59-4.59-4.59Z" style="fill: #6f84de;"/>
  </g>
  <g id="Icons">
    <path d="M610.1,343.02h341.33c9.43,0,17.07-7.64,17.07-17.07V87.02c0-9.43-7.64-17.07-17.07-17.07h-341.33c-9.43,0-17.07,7.64-17.07,17.07v238.93c0,9.43,7.64,17.07,17.07,17.07ZM610.1,87.02h341.33v238.93h-341.33V87.02Z" style="fill: #dea96f;"/>
    <path d="M541.83,496.62h477.87c9.43,0,17.07-7.64,17.07-17.07v-25.6c0-1.08-.2-2.16-.61-3.17l-33.53-83.81V61.42c0-14.14-11.46-25.6-25.6-25.6h-392.53c-14.14,0-25.6,11.46-25.6,25.6v305.55l-33.53,83.81c-.4,1.01-.61,2.08-.61,3.17v25.6c0,9.43,7.64,17.07,17.07,17.07ZM541.83,479.56v-17.07h477.87v17.07h-477.87ZM988.32,377.16l27.31,68.27h-135.21l-12.8-31.94c-2.57-6.49-8.85-10.74-15.83-10.73h-142.05c-6.99-.02-13.28,4.24-15.85,10.73l-12.77,31.93h-135.22l27.31-68.27h415.11ZM862.03,445.42h-162.53l10.24-25.6h142.05l10.24,25.6ZM584.5,52.89h392.53c4.71,0,8.53,3.82,8.53,8.53v298.67h-409.6V61.42c0-4.71,3.82-8.53,8.53-8.53Z" style="fill: #dea96f;"/>
    <path d="M652.76,163.82c4.71,0,8.53-3.82,8.53-8.54,0-2.26-.9-4.43-2.5-6.03l-11.03-11.03,11.03-11.03c3.27-3.39,3.18-8.79-.21-12.07-3.31-3.19-8.55-3.19-11.86,0l-17.07,17.07c-3.33,3.33-3.33,8.73,0,12.07l17.07,17.07c1.6,1.6,3.77,2.5,6.03,2.5Z" style="fill: #dea96f;"/>
    <path d="M732.06,161.32c3.33,3.33,8.73,3.33,12.07,0l17.07-17.07c3.33-3.33,3.33-8.73,0-12.07l-17.07-17.07c-3.39-3.27-8.79-3.18-12.07.21-3.19,3.31-3.19,8.55,0,11.86l11.03,11.03-11.03,11.03c-3.33,3.33-3.33,8.73,0,12.07Z" style="fill: #dea96f;"/>
    <path d="M683.08,162.97c4.22,2.11,9.34.4,11.45-3.82,0,0,0,0,0,0l17.07-34.13c2.11-4.22.4-9.35-3.82-11.45-4.22-2.11-9.35-.4-11.45,3.82l-17.07,34.13c-2.11,4.22-.4,9.34,3.82,11.45,0,0,0,0,0,0Z" style="fill: #dea96f;"/>
    <path d="M678.36,189.42c0-4.71-3.82-8.53-8.53-8.53h-25.6c-4.71,0-8.53,3.82-8.53,8.53s3.82,8.53,8.53,8.53h25.6c4.71,0,8.53-3.82,8.53-8.53Z" style="fill: #dea96f;"/>
    <path d="M695.43,189.42c0,4.71,3.82,8.53,8.53,8.53h68.27c4.71,0,8.53-3.82,8.53-8.53s-3.82-8.53-8.53-8.53h-68.27c-4.71,0-8.53,3.82-8.53,8.53Z" style="fill: #dea96f;"/>
    <path d="M738.1,223.56c0-4.71-3.82-8.53-8.53-8.53h-68.27c-4.71,0-8.53,3.82-8.53,8.53s3.82,8.53,8.53,8.53h68.27c4.71,0,8.53-3.82,8.53-8.53Z" style="fill: #dea96f;"/>
    <path d="M661.3,249.16c-4.71,0-8.53,3.82-8.53,8.53s3.82,8.53,8.53,8.53h42.67c4.71,0,8.53-3.82,8.53-8.53s-3.82-8.53-8.53-8.53h-42.67Z" style="fill: #dea96f;"/>
    <path d="M900.23,249.16h-25.6c-4.71,0-8.53,3.82-8.53,8.53s3.82,8.53,8.53,8.53h25.6c4.71,0,8.53-3.82,8.53-8.53s-3.82-8.53-8.53-8.53Z" style="fill: #dea96f;"/>
    <path d="M729.56,257.69c0,4.71,3.82,8.53,8.53,8.53h102.4c4.71,0,8.53-3.82,8.53-8.53s-3.82-8.53-8.53-8.53h-102.4c-4.71,0-8.53,3.82-8.53,8.53Z" style="fill: #dea96f;"/>
    <path d="M678.36,283.29h-17.07c-4.71,0-8.53,3.82-8.53,8.53s3.82,8.53,8.53,8.53h17.07c4.71,0,8.53-3.82,8.53-8.53s-3.82-8.53-8.53-8.53Z" style="fill: #dea96f;"/>
    <path d="M900.23,283.29h-93.87c-4.71,0-8.53,3.82-8.53,8.53s3.82,8.53,8.53,8.53h93.87c4.71,0,8.53-3.82,8.53-8.53s-3.82-8.53-8.53-8.53Z" style="fill: #dea96f;"/>
    <path d="M772.23,283.29h-59.73c-4.71,0-8.53,3.82-8.53,8.53s3.82,8.53,8.53,8.53h59.73c4.71,0,8.53-3.82,8.53-8.53s-3.82-8.53-8.53-8.53Z" style="fill: #dea96f;"/>
  </g>
</svg>