<?xml version="1.0" encoding="UTF-8"?>
<svg id="Layer_1" data-name="Layer 1" xmlns="http://www.w3.org/2000/svg" viewBox="0 0 512 512">
  <defs>
    <style>
      .cls-1 {
        fill: #042b49;
      }

      .cls-2 {
        fill: #628dba;
      }

      .cls-3 {
        fill: #f0b80c;
      }

      .cls-4 {
        fill: #24517f;
      }

      .cls-5 {
        fill: #ffd565;
      }
    </style>
  </defs>
  <polygon class="cls-1" points="493 62.76 448.49 470.63 140.6 437.89 185.11 30.02 493 62.76"/>
  <polygon class="cls-2" points="357.02 422.22 48.13 443.65 19 34.46 327.89 13.03 357.02 422.22"/>
  <polygon class="cls-4" points="255.73 429.26 357.05 422.22 327.9 13 255.73 18.01 255.73 429.26"/>
  <path class="cls-5" d="M104.89,499h280.81V93.72H104.89v405.28Z"/>
  <rect class="cls-3" x="255.73" y="93.72" width="129.97" height="405.28"/>
  <g>
    <rect class="cls-4" x="151.16" y="297.65" width="188.28" height="28.5"/>
    <rect class="cls-4" x="151.16" y="348.33" width="188.28" height="28.5"/>
    <rect class="cls-4" x="151.16" y="399.02" width="188.28" height="28.5"/>
  </g>
  <g>
    <rect class="cls-1" x="255.73" y="297.65" width="83.7" height="28.5"/>
    <rect class="cls-1" x="255.73" y="399.02" width="83.7" height="28.5"/>
    <rect class="cls-1" x="255.73" y="348.33" width="83.7" height="28.5"/>
  </g>
  <g>
    <path class="cls-4" d="M148.25,215.59c0-27.57,21.43-46.93,50.66-46.93,17.8,0,31.83,6.41,40.79,17.95l-19.35,17.05c-5.33-6.67-11.69-10.52-19.87-10.52-12.73,0-21.3,8.72-21.3,22.44s8.57,22.44,21.3,22.44c8.18,0,14.55-3.85,19.87-10.52l19.35,17.05c-8.96,11.54-22.99,17.95-40.79,17.95-29.23,0-50.66-19.36-50.66-46.93Z"/>
    <path class="cls-4" d="M345.7,170.71l-38.45,89.76h-30.14l-38.45-89.76h32.99l21.69,52.44,22.21-52.44h30.14Z"/>
  </g>
  <polygon class="cls-1" points="315.56 170.71 293.35 223.15 271.66 170.71 255.73 170.71 255.73 210.56 277.11 260.47 307.25 260.47 345.7 170.71 315.56 170.71"/>
</svg>