<?xml version="1.0" encoding="UTF-8"?>
<svg id="Layer_1" data-name="Layer 1" xmlns="http://www.w3.org/2000/svg" viewBox="0 0 1108 680">
  <g>
    <path d="M209.24,364.52l-100.51-84.42h-35.74v34.72l20.81,27.46,12.78-9.69-17.55-23.17v-13.29h13.86l91.97,77.25,6.14,25.93-16.41,15.4-25.4-12.7-42.94-56.68-12.78,9.69,45.2,59.66,38.75,19.38,31.33-29.41-9.51-40.13Z" style="fill: #dea96f;"/>
    <path d="M270.28,432.73l-8.76-8.76h-34.68l-31.1,29.2,18.03,27.35h68.45v-16.04h-59.81l-5.84-8.87,16.63-15.61h21.68l8.76,8.76h47.38l15.81,15.72h-28.22v16.04h47.88v-19.11l-28.85-28.69h-47.35Z" style="fill: #dea96f;"/>
    <path d="M319.05,408.4l45.09-64.07-16.12-24.23,17.51-26.2-43.71-29.42-66.55,55.67h-21.15v68.06l33.19,20.2h51.73ZM250.17,336.18h10.93l61.77-51.67,20.45,13.76-14.57,21.8,15.96,24-33.99,48.29h-38.91l-21.64-13.18v-43.01Z" style="fill: #dea96f;"/>
    <path d="M386.5,393.3l4.24-16.95h17.14l25.88,48.44,14.15-7.56-24.16-45.21,14.17-10.32-9.44-12.96-15.88,11.57h-17.84l6.03-24.14h38.19l16.1-16.1-11.34-11.34-11.4,11.4h-44.07l-17.8,71.19v33.07h16.04v-31.09Z" style="fill: #dea96f;"/>
    <path d="M578.98,436.64l-18.98-15.55-10.17,12.41,13.1,10.74v28.16h57.21v-16.04h-41.17v-19.71Z" style="fill: #dea96f;"/>
    <path d="M585.23,360.31l-24.37,11.25-17.62-27.29h-40.76l-19.54,29.59v34.53h36.28l17.95,14.71,10.17-12.4-22.38-18.35h-25.97v-13.68l12.13-18.37h23.4l20.44,31.65,33.81-15.62h31.38v-16.04h-34.91Z" style="fill: #dea96f;"/>
    <path d="M362.45,440.38h48.12v16.04h-48.12v-16.04Z" style="fill: #dea96f;"/>
    <path d="M426.6,440.38h16.04v16.04h-16.04v-16.04Z" style="fill: #dea96f;"/>
    <path d="M445.85,473.51l-11.66,17.31,13.3,8.96,9.8-14.55,34.37-22-8.65-13.51-37.17,23.79Z" style="fill: #dea96f;"/>
    <path d="M274.23,344.2h16.04v16.04h-16.04v-16.04Z" style="fill: #dea96f;"/>
    <path d="M587.35,392.32h16.04v16.02h-16.04v-16.02Z" style="fill: #dea96f;"/>
  </g>
  <g>
    <path d="M770.1,217.5h132.52c3.9,0,6.5-2.6,6.5-6.5s-2.6-6.5-6.5-6.5h-132.52c-3.9,0-6.5,2.6-6.5,6.5s3.25,6.5,6.5,6.5Z" style="fill: #6f84de;"/>
    <path d="M736.32,255.83h166.29c3.9,0,6.5-2.6,6.5-6.5s-2.6-6.5-6.5-6.5h-166.29c-3.9,0-6.5,2.6-6.5,6.5s3.25,6.5,6.5,6.5Z" style="fill: #6f84de;"/>
    <path d="M978.61,464.35c25.98-35.08,23.39-82.5-4.55-114.33-5.85-6.5-12.34-12.34-19.49-16.89v-150.05c0-9.74-7.8-18.19-18.19-18.19-258.53,0-246.19-.65-248.79,1.95-68.21,67.56-67.56,66.26-67.56,70.16v325.44c0,10.39,7.8,18.19,17.54,18.19h298.16c9.74,0,18.19-7.8,18.19-18.19v-65.61c12.34,20.14,27.93,42.87,32.48,48.07,15.59,17.54,41.57,9.09,48.07-10.39,3.25-9.09,1.3-18.84-5.85-26.63-5.2-5.85-29.88-28.58-50.02-43.52ZM964.32,358.46c32.48,36.38,23.39,94.19-19.49,119.52-31.18,18.19-72.75,12.34-98.09-16.24-28.58-32.48-25.33-81.85,7.15-110.43,32.48-28.58,81.85-25.33,110.43,7.15ZM764.9,367.56v-70.16h37.68v70.16c0,1.3,0,1.95.65,3.25l12.34,22.09c-2.6,13.64-1.95,27.28,1.3,39.62h-87.04l33.78-61.71c1.3-1.3,1.3-1.95,1.3-3.25ZM722.68,445.51h98.74c3.9,9.09,9.09,16.89,15.59,24.68,9.74,11.04,23.39,20.14,35.08,24.68,1.3,3.25,11.69,14.29,3.25,27.93-3.9,6.5-11.04,10.39-18.84,10.39h-145.51c-16.24,0-26.63-17.54-18.84-31.83l30.53-55.86ZM685.65,186.97v43.52h-43.52l43.52-43.52ZM936.39,567.63h-298.81c-2.6,0-4.55-1.95-4.55-5.2V243.49h59.11c3.9,0,6.5-2.6,6.5-6.5v-59.11h237.75c2.6,0,5.2,1.95,5.2,5.2v142.91c-32.48-13.64-69.51-7.8-96.14,14.94-11.04,9.74-18.84,20.79-24.03,33.78l-5.2-9.74v-67.56h10.39c3.9,0,6.5-2.6,6.5-6.5s-2.6-6.5-6.5-6.5c-103.93,0,16.89,0-85.1,0-3.9,0-6.5,2.6-6.5,6.5s2.6,6.5,6.5,6.5h10.39v68.21l-70.8,129.27c-12.99,23.39,3.9,51.32,29.88,51.32h145.51c24.68,0,40.92-24.68,32.48-46.77,18.19,3.25,36.38,1.3,51.97-5.85v68.86c.65,3.25-1.95,5.2-4.55,5.2ZM1022.14,530.6c-3.25,9.74-16.89,16.24-25.98,5.85-4.55-5.2-23.39-32.48-35.73-53.92,3.25-2.6,6.5-5.2,9.09-7.8,20.14,14.94,44.82,37.68,49.37,42.22,4.55,5.2,4.55,10.39,3.25,13.64Z" style="fill: #6f84de;"/>
    <path d="M736.97,520.21c11.04,0,20.14-9.09,20.14-20.14s-9.09-20.14-20.14-20.14-20.14,9.09-20.14,20.14,9.09,20.14,20.14,20.14ZM736.97,492.93c3.9,0,7.15,3.25,7.15,7.15s-3.25,7.15-7.15,7.15-7.15-3.25-7.15-7.15,3.25-7.15,7.15-7.15Z" style="fill: #6f84de;"/>
    <path d="M803.88,501.37c11.04,0,20.14-9.09,20.14-20.14s-9.09-20.14-20.14-20.14-20.14,9.09-20.14,20.14,9.09,20.14,20.14,20.14ZM803.88,473.44c3.9,0,7.15,3.25,7.15,7.15s-3.25,7.15-7.15,7.15-7.15-3.25-7.15-7.15,3.25-7.15,7.15-7.15Z" style="fill: #6f84de;"/>
  </g>
</svg>