<?xml version="1.0" encoding="UTF-8"?>
<svg id="Layer_1" data-name="Layer 1" xmlns="http://www.w3.org/2000/svg" viewBox="0 0 1108 680">
  <g id="_12_Boots" data-name="12 Boots">
    <path d="M923.44,321.55c9.85-20.99,11.65-30.94,13.23-39.71,1.32-7.31,2.46-13.63,8.18-25.67l33.69-70.92c4.13-8.69.42-19.12-8.27-23.24l-48.39-22.98c.44-7.96-2.21-20.36-15.04-26.46l-7.88-3.74c-2.17-1.03-4.78-.11-5.81,2.07l-29.94,63.04c-1.43,3-5.73,6.13-9.02,6.56l-70.27,9.25c-3.92.52-10.5-.52-14.08-2.22l-35.46-16.84c-15.21-7.22-33.45-.73-40.68,14.48l-6.71,14.13-4.11,1.46c-.81.29-1.52.81-2.03,1.5l-13.3,17.83c-1.23,1.65-1.14,3.94.22,5.49.92,1.04,23.06,25.83,66.7,46.56l51.22,24.33c2.17,1.03,4.78.11,5.81-2.07l3.74-7.88,27.58,13.1-3.74,7.88c-1.03,2.17-.11,4.78,2.07,5.81l86.68,41.17c2.17,1.03,4.78.11,5.81-2.07l7.49-15.76c3.21-6.75,2.86-12.28,2.33-15.09ZM970.65,181.51l-7.49,15.76-47.28-22.46c-4.35-2.06-6.2-7.28-4.14-11.62l7.49-15.76,47.28,22.46c4.35,2.06,6.2,7.28,4.14,11.62ZM785.05,198.39l9.75-1.29,4.5,12.66c.4,1.13,1.23,2,2.24,2.48s2.2.57,3.33.17c2.27-.8,3.45-3.3,2.65-5.57l-3.88-10.9,16.17-2.13,4.8,13.49c.4,1.13,1.23,1.99,2.24,2.47s2.2.57,3.33.17c2.27-.8,3.45-3.3,2.65-5.57l-4.18-11.73,16.17-2.13,5.09,14.32c.4,1.13,1.23,2,2.24,2.48s2.2.57,3.33.17c2.27-.8,3.45-3.3,2.65-5.57l-4.47-12.56,1.64-.21c6.28-.82,13.05-5.75,15.76-11.46l28.07-59.1,3.94,1.87c11.35,5.39,10.24,17.41,9.88,19.86l-9.09,19.14c-4.13,8.69-.42,19.12,8.27,23.24l47.28,22.46-21.02,44.26c-14.37-2.62-73.73-13.37-139.73-23.84-10.31-1.64-17.77-5.67-22.17-11.98-3.88-5.57-4.67-11.93-4.66-16.23,4.43,1.08,9.44,1.54,13.21,1.04h0ZM730.62,178.55l32.61,15.49c-.41,5.21-.2,15.37,6.05,24.42,3.38,4.89,7.99,8.73,13.78,11.48,4.15,1.97,8.9,3.38,14.25,4.24,62.99,10,119.92,20.24,137.34,23.41-4.24,9.93-5.38,16.17-6.56,22.7-1.49,8.27-3.03,16.8-11.34,34.96l-165.44-78.59c-27.99-13.3-48.83-29.39-55.78-35.06l6.04-12.71c5.16-10.86,18.19-15.5,29.06-10.34h0ZM907.61,344.72l-15.76-7.49,1.87-3.94c1.03-2.17.11-4.78-2.07-5.81s-4.78-.11-5.81,2.07l-1.87,3.94-11.82-5.61,1.87-3.94c1.03-2.17.11-4.78-2.07-5.81s-4.78-.11-5.81,2.07l-1.87,3.94-11.82-5.61,1.87-3.94c1.03-2.17.11-4.78-2.07-5.81s-4.78-.11-5.81,2.07l-1.87,3.94-15.76-7.49,3.74-7.88c1.03-2.17.11-4.78-2.07-5.81l-35.46-16.84c-2.17-1.03-4.78-.11-5.81,2.07l-3.74,7.88-11.82-5.61,1.87-3.94c1.03-2.17.11-4.78-2.07-5.81s-4.78-.11-5.81,2.07l-1.87,3.94-11.82-5.61,1.87-3.94c1.03-2.17.11-4.78-2.07-5.81s-4.78-.11-5.81,2.07l-1.87,3.94-7.88-3.74c-1.34-.63-2.62-1.28-3.91-1.93l1.85-3.88c1.03-2.17.11-4.78-2.07-5.81s-4.78-.11-5.81,2.07l-1.73,3.63c-4.61-2.49-8.9-5-12.92-7.49l1.9-2.4c1.5-1.89,1.18-4.63-.71-6.13-1.89-1.48-4.63-1.18-6.13.71l-2.43,3.07c-4.46-2.99-8.47-5.89-12-8.61l1.85-2.22c1.54-1.85,1.29-4.6-.56-6.14-1.86-1.54-4.61-1.29-6.14.56l-1.96,2.36c-4.96-4.15-8.54-7.55-10.69-9.7l10.3-13.81,2.2-.78c6.47,5.38,28.12,22.46,58.33,36.81l167.44,79.54c.17,1.79.07,4.94-1.77,8.82l-5.61,11.82Z" style="fill: #6f84de;"/>
  </g>
  <g id="g19">
    <g id="g25">
      <path id="path27" d="M66.41,583.02h662.67" style="fill: none; stroke: #dea96f; stroke-linecap: round; stroke-linejoin: round; stroke-width: 20px;"/>
    </g>
    <g id="g29">
      <path id="path31" d="M87.79,583.02l139.51-179.36c5.97-7.67,16.36-10.35,25.29-6.52l59.65,25.57,50.15-41.79c8.06-6.71,19.8-6.59,27.71.29l232.1,201.82" style="fill: none; stroke: #dea96f; stroke-linecap: round; stroke-linejoin: round; stroke-width: 20px;"/>
    </g>
    <g id="g33">
      <path id="path35" d="M260.12,399.7l122.68-150.99c7.99-9.84,22.74-10.6,31.71-1.64l90.12,90.12,25.05-12.52c9.99-4.99,22.14-1.46,27.89,8.12l150.14,250.23" style="fill: none; stroke: #dea96f; stroke-linecap: round; stroke-linejoin: round; stroke-width: 20px;"/>
    </g>
    <g id="g37">
      <path id="path39" d="M312.24,422.7l74.82,160.32" style="fill: none; stroke: #dea96f; stroke-linecap: round; stroke-linejoin: round; stroke-width: 20px;"/>
    </g>
    <g id="g41">
      <path id="path43" d="M485.94,401.07l-14.27,48.8" style="fill: none; stroke: #dea96f; stroke-linecap: round; stroke-linejoin: round; stroke-width: 20px;"/>
    </g>
    <g id="g45">
      <path id="path47" d="M504.63,337.19l-6.41,21.9" style="fill: none; stroke: #dea96f; stroke-linecap: round; stroke-linejoin: round; stroke-width: 20px;"/>
    </g>
    <g id="g49">
      <path id="path51" d="M173.29,583.02l53.44-96.19" style="fill: none; stroke: #dea96f; stroke-linecap: round; stroke-linejoin: round; stroke-width: 20px;"/>
    </g>
  </g>
</svg>