<?xml version="1.0" encoding="UTF-8"?>
<svg id="Layer_1" data-name="Layer 1" xmlns="http://www.w3.org/2000/svg" viewBox="0 0 1108 680">
  <g id="_12_Boots" data-name="12 Boots">
    <path d="M943.44,486.55c9.85-20.99,11.65-30.94,13.23-39.71,1.32-7.31,2.46-13.63,8.18-25.67l33.69-70.92c4.13-8.69.42-19.12-8.27-23.24l-48.39-22.98c.44-7.96-2.21-20.36-15.04-26.46l-7.88-3.74c-2.17-1.03-4.78-.11-5.81,2.07l-29.94,63.04c-1.43,3-5.73,6.13-9.02,6.56l-70.27,9.25c-3.92.52-10.5-.52-14.08-2.22l-35.46-16.84c-15.21-7.22-33.45-.73-40.68,14.48l-6.71,14.13-4.11,1.46c-.81.29-1.52.81-2.03,1.5l-13.3,17.83c-1.23,1.65-1.14,3.94.22,5.49.92,1.04,23.06,25.83,66.7,46.56l51.22,24.33c2.17,1.03,4.78.11,5.81-2.07l3.74-7.88,27.58,13.1-3.74,7.88c-1.03,2.17-.11,4.78,2.07,5.81l86.68,41.17c2.17,1.03,4.78.11,5.81-2.07l7.49-15.76c3.21-6.75,2.86-12.28,2.33-15.09ZM990.65,346.51l-7.49,15.76-47.28-22.46c-4.35-2.06-6.2-7.28-4.14-11.62l7.49-15.76,47.28,22.46c4.35,2.06,6.2,7.28,4.14,11.62ZM805.05,363.39l9.75-1.29,4.5,12.66c.4,1.13,1.23,2,2.24,2.48s2.2.57,3.33.17c2.27-.8,3.45-3.3,2.65-5.57l-3.88-10.9,16.17-2.13,4.8,13.49c.4,1.13,1.23,1.99,2.24,2.47s2.2.57,3.33.17c2.27-.8,3.45-3.3,2.65-5.57l-4.18-11.73,16.17-2.13,5.09,14.32c.4,1.13,1.23,2,2.24,2.48s2.2.57,3.33.17c2.27-.8,3.45-3.3,2.65-5.57l-4.47-12.56,1.64-.21c6.28-.82,13.05-5.75,15.76-11.46l28.07-59.1,3.94,1.87c11.35,5.39,10.24,17.41,9.88,19.86l-9.09,19.14c-4.13,8.69-.42,19.12,8.27,23.24l47.28,22.46-21.02,44.26c-14.37-2.62-73.73-13.37-139.73-23.84-10.31-1.64-17.77-5.67-22.17-11.98-3.88-5.57-4.67-11.93-4.66-16.23,4.43,1.08,9.44,1.54,13.21,1.04h0ZM750.62,343.55l32.61,15.49c-.41,5.21-.2,15.37,6.05,24.42,3.38,4.89,7.99,8.73,13.78,11.48,4.15,1.97,8.9,3.38,14.25,4.24,62.99,10,119.92,20.24,137.34,23.41-4.24,9.93-5.38,16.17-6.56,22.7-1.49,8.27-3.03,16.8-11.34,34.96l-165.44-78.59c-27.99-13.3-48.83-29.39-55.78-35.06l6.04-12.71c5.16-10.86,18.19-15.5,29.06-10.34h0ZM927.61,509.72l-15.76-7.49,1.87-3.94c1.03-2.17.11-4.78-2.07-5.81s-4.78-.11-5.81,2.07l-1.87,3.94-11.82-5.61,1.87-3.94c1.03-2.17.11-4.78-2.07-5.81s-4.78-.11-5.81,2.07l-1.87,3.94-11.82-5.61,1.87-3.94c1.03-2.17.11-4.78-2.07-5.81s-4.78-.11-5.81,2.07l-1.87,3.94-15.76-7.49,3.74-7.88c1.03-2.17.11-4.78-2.07-5.81l-35.46-16.84c-2.17-1.03-4.78-.11-5.81,2.07l-3.74,7.88-11.82-5.61,1.87-3.94c1.03-2.17.11-4.78-2.07-5.81s-4.78-.11-5.81,2.07l-1.87,3.94-11.82-5.61,1.87-3.94c1.03-2.17.11-4.78-2.07-5.81s-4.78-.11-5.81,2.07l-1.87,3.94-7.88-3.74c-1.34-.63-2.62-1.28-3.91-1.93l1.85-3.88c1.03-2.17.11-4.78-2.07-5.81s-4.78-.11-5.81,2.07l-1.73,3.63c-4.61-2.49-8.9-5-12.92-7.49l1.9-2.4c1.5-1.89,1.18-4.63-.71-6.13-1.89-1.48-4.63-1.18-6.13.71l-2.43,3.07c-4.46-2.99-8.47-5.89-12-8.61l1.85-2.22c1.54-1.85,1.29-4.6-.56-6.14-1.86-1.54-4.61-1.29-6.14.56l-1.96,2.36c-4.96-4.15-8.54-7.55-10.69-9.7l10.3-13.81,2.2-.78c6.47,5.38,28.12,22.46,58.33,36.81l167.44,79.54c.17,1.79.07,4.94-1.77,8.82l-5.61,11.82Z" style="fill: #6f84de;"/>
  </g>
  <g id="_31" data-name="31">
    <path d="M602.4,501.9c.83,0,.83-.83,0,0,3.31-2.48,4.14-5.8,1.66-9.11-.83-.83-1.66-1.66-2.48-2.48-3.31-3.31-15.73-19.04-22.35-28.15,1.66.83,3.31,2.48,5.8,3.31,4.97,3.31,11.59-1.66,9.11-7.45-5.8-14.07-13.25-27.32-22.35-40.57,4.97.83,9.11-4.14,6.62-8.28-9.94-24.01-23.18-36.43-33.12-49.68-2.48-3.31-7.45-4.14-10.76,0-13.25,16.56-25.67,34.77-37.26,52.16-3.31,4.97,1.66,11.59,7.45,9.11l10.76-4.14c-1.66,2.48-4.14,5.8-5.8,8.28-12.42,16.56-21.53,33.12-26.49,40.57-3.31,4.97,1.66,11.59,7.45,9.11,2.48-.83,6.62-2.48,10.76-4.14-14.9,18.21-20.7,25.67-24.84,32.29-2.48,3.31-.83,8.28,3.31,9.11,7.45,2.48,17.39,4.14,27.32,5.8,10.76,1.66,20.7,2.48,30.63,1.66l-.83,18.21c0,3.31,2.48,6.62,5.8,6.62s6.62-2.48,6.62-5.8c.83-12.42.83-17.39.83-19.87,19.87-1.66,37.26-8.28,52.16-16.56h0ZM523.75,463.81c3.31-1.66,4.97-4.97,3.31-8.28s-4.97-4.97-8.28-3.31c-4.14,1.66-11.59,4.14-15.73,5.8,14.9-24.84,37.26-46.36,27.32-54.64-3.31-3.31-7.45-1.66-10.76,0,6.62-9.94,14.07-19.87,21.53-28.98,10.76,14.07,13.25,15.73,19.04,26.49h-3.31c-5.8-2.48-11.59,4.97-6.62,9.94,10.76,12.42,19.04,25.67,26.49,39.74-5.8-.83-6.62-.83-9.11-.83-5.8-2.48-10.76,4.97-6.62,9.94,2.48,2.48,19.87,26.49,28.15,37.26-33.12,16.56-62.92,14.9-96.04,8.28.83-3.31,29.81-41.4,30.63-41.4h0Z" style="fill: #dea96f;"/>
    <path d="M346.57,390.13c-7.45,3.31-3.31,14.9,4.14,11.59,16.56-6.62,46.36-23.18,52.99-39.74,6.62-16.56-7.45-32.29-14.07-24.01-2.48,2.48-1.66,6.62.83,9.11s3.31,7.45,1.66,10.76c-4.97,12.42-32.29,27.32-45.54,32.29Z" style="fill: #dea96f;"/>
    <path d="M272.89,414.96c-20.7,6.62-38.08,20.7-49.68,39.74-2.48,4.14.83,9.11,4.97,9.11,2.48,0,4.14-.83,4.97-3.31,9.11-15.73,24.84-28.15,42.22-33.94,3.31-.83,4.97-4.97,4.14-7.45,0-3.31-3.31-4.97-6.62-4.14h0Z" style="fill: #dea96f;"/>
    <path d="M384.66,483.68c-13.25-6.62-24.84,0-24.01-33.94,0-8.28-12.42-8.28-12.42,0,0,5.8,0,13.25,1.66,19.87,1.66,8.28,6.62,14.9,12.42,19.04,9.94,6.62,20.7,3.31,24.84,15.73,1.66,4.14.83,9.11-.83,12.42s-.83,6.62,2.48,8.28c11.59,6.62,19.87-29.81-4.14-41.4h0Z" style="fill: #dea96f;"/>
    <path d="M260.47,553.23c-.83,3.31-.83,5.8-2.48,7.45l-.83.83c-2.48-1.66-6.62-1.66-8.28,1.66-3.31,4.97.83,10.76,8.28,10.76,4.14,0,9.11-2.48,11.59-5.8,3.31-4.14,4.14-9.11,4.14-13.25,1.66-10.76,3.31-7.45,14.9-11.59,12.42-4.14,21.53-17.39,21.53-30.63,0-3.31-2.48-6.62-5.8-6.62s-6.62,2.48-6.62,5.8c0,8.28-5.8,16.56-13.25,19.04-1.66.83-2.48.83-4.14.83-12.42,4.14-17.39,8.28-19.04,21.53h0Z" style="fill: #dea96f;"/>
    <path d="M178.5,556.54c-8.28,4.97-10.76,12.42-10.76,17.39.83,3.31,2.48,5.8,5.8,5.8s6.62-3.31,5.8-6.62c-.83-5.8,12.42-9.11,18.21-15.73,12.42-12.42,2.48-29.81-5.8-23.18-2.48,2.48-3.31,5.8-.83,9.11.83.83,0,3.31-1.66,5.8-1.66,2.48-6.62,4.97-10.76,7.45h0Z" style="fill: #dea96f;"/>
    <path d="M385.48,568.13c-3.31-1.66-5.8-4.97-4.97-8.28,0-3.31-2.48-6.62-5.8-6.62s-6.62,2.48-6.62,5.8c-.83,8.28,4.14,15.73,10.76,19.87,1.66,2.48,3.31,7.45,8.28,7.45s7.45-4.97,4.97-9.11l-3.31-5.8c-1.66-1.66-2.48-2.48-3.31-3.31h0Z" style="fill: #dea96f;"/>
    <path d="M324.22,61.44c-22.35,0-39.74,18.21-39.74,39.74s18.21,39.74,39.74,39.74,39.74-18.21,39.74-39.74-18.21-39.74-39.74-39.74ZM324.22,128.5c-14.9,0-27.32-12.42-27.32-27.32s12.42-27.32,27.32-27.32,27.32,12.42,27.32,27.32-12.42,27.32-27.32,27.32Z" style="fill: #dea96f;"/>
    <path d="M81.64,338.79c48.02,26.49,108.46,1.66,156.48-4.14,18.21-2.48,37.26-2.48,54.64-9.11,17.39-6.62,34.77-19.87,54.64-15.73,1.66,0,3.31.83,4.97.83,3.31,4.97,5.8,11.59,6.62,19.04,1.66,34.77-72.03,46.36-100.18,54.64-35.6,10.76-81.96,24.01-81.96,62.09-3.31,11.59-1.66,23.18,8.28,33.12,3.31,3.31,8.28,6.62,9.11,11.59,1.66,9.11-9.94,14.9-19.04,16.56-9.11,1.66-18.21,2.48-26.49,5.8-8.28,3.31-16.56,9.94-18.21,19.04-.83,7.45.83,15.73-.83,22.35-4.14,13.25-20.7,16.56-33.94,20.7-4.14.83-9.11,3.31-7.45,7.45.83,4.14,9.11,4.14,13.25,4.14,1.66.83,2.48.83,4.14.83,10.76-1.66,19.87-4.14,28.15-8.28,10.76-5.8,18.21-16.56,18.21-26.49,0-4.97-1.66-11.59-.83-14.9.83-6.62,9.11-11.59,15.73-14.07,9.94-2.48,19.87-3.31,29.81-8.28,11.59-4.97,21.53-18.21,16.56-30.63-3.31-7.45-9.94-12.42-14.07-16.56-6.62-6.62-9.94-16.56-9.11-25.67,7.45-57.13,184.63-42.22,181.32-113.43-.83-13.25-7.45-25.67-16.56-34.77,19.87,2.48,43.05,7.45,62.09,22.35,16.56,13.25,24.01,24.84,24.01,36.43,0,8.28-4.97,17.39-14.07,24.84-13.25,11.59-43.88,19.87-40.57,48.02,1.66,14.9,15.73,24.01,28.98,27.32,11.59,3.31,24.01,4.14,33.94,8.28,8.28,4.14,15.73,12.42,14.07,19.87-2.48,9.11-17.39,15.73-20.7,28.98-2.48,9.11,1.66,19.04,9.11,25.67,8.28,7.45,17.39,10.76,40.57,20.7,24.84,10.76,50.5,22.35,77.82,28.98h1.66c2.48,0,4.97-1.66,5.8-4.97s-.83-6.62-4.14-7.45c-.83,0-1.66-.83-2.48-.83-28.98-20.7-66.23-28.98-99.35-43.05-8.28-3.31-16.56-9.11-15.73-18.21,3.31-9.11,16.56-14.07,19.87-27.32,2.48-9.94-1.66-19.04-9.11-26.49-15.73-17.39-41.4-13.25-54.64-22.35-5.8-4.14-9.94-11.59-8.28-18.21,4.14-11.59,20.7-11.59,37.26-35.6,14.9-15.73,17.39-34.77,5.8-53.82,21.53,12.42,55.47,13.25,80.31,11.59,28.15-1.66,56.3-9.94,79.48-25.67,6.62-4.14,11.59-9.94,8.28-17.39.83-3.31.83-.83-22.35-59.61-.83-2.48-3.31-4.14-5.8-4.97-6.62-1.66-9.11,4.14-14.9,7.45l-27.32-52.16c-3.31-6.62-11.59-6.62-15.73-.83l-4.97,6.62-16.56-37.26c-3.31-8.28-14.07-9.94-19.87-3.31l-15.73,16.56-23.18-59.61c-6.62-16.56-28.98-16.56-36.43-.83l-36.43,80.31c-5.8-6.62-11.59-13.25-14.9-17.39-4.97-6.62-14.9-6.62-20.7-.83-5.8,6.62-11.59,13.25-17.39,19.87-1.66-2.48-4.14-4.97-6.62-7.45s-7.45-2.48-9.94,1.66c-4.14,7.45-6.62,11.59-11.59,19.04-10.76-17.39-19.87-33.94-26.49-48.85-3.31-7.45-13.25-9.11-18.21-2.48l-1.66,1.66c-2.48-7.45-6.62-14.07-9.94-20.7-1.66-3.31-4.97-5.8-9.11-5.8s-7.45,1.66-9.94,4.97c-9.11,17.39-20.7,34.77-32.29,51.33-4.97,6.62-24.01,40.57-32.29,39.74-3.31-.83-8.28-4.97-14.07-5.8-11.59-2.48-20.7,8.28-24.01,12.42-17.39,17.39-30.63,69.55-44.71,85.28-.83,1.66-1.66,3.31-1.66,4.97-4.14,5.8,5.8,14.9,11.59,18.21h0ZM422.74,115.26c2.48-6.62,10.76-5.8,13.25,0l26.49,67.89c-4.97,14.07-15.73,25.67-25.67,35.6-3.31,3.31-1.66,9.94,3.31,10.76,7.45.83,13.25,6.62,15.73,13.25,2.48,6.62.83,14.9-4.14,19.87-5.8,5.8,3.31,14.07,9.11,8.28,13.25-14.07,10.76-39.74-9.11-50.5,9.11-9.94,18.21-21.53,22.35-35.6v-1.66l19.87-20.7,20.7,47.19c1.66,4.14,8.28,4.97,10.76.83l8.28-11.59,28.98,54.64c1.66,3.31,6.62,4.14,9.11,1.66l9.11-7.45,19.87,48.85c-53.82,28.98-121.7,33.12-177.18,9.94h-1.66c-21.53-17.39-47.19-22.35-68.72-24.84,20.7-67.89,48.02-116.74,69.55-166.41h0ZM313.46,198.88c1.66,1.66,2.48,4.14,3.31,6.62,1.66,4.14,8.28,4.97,10.76.83,6.62-9.94,14.07-17.39,22.35-26.49h1.66c4.14,5.8,14.9,17.39,19.04,22.35-9.94,24.01-21.53,55.47-27.32,79.48-10.76-19.87-24.84-42.22-38.91-65.41,2.48-7.45,4.97-10.76,9.11-17.39h0ZM257.98,161.62c18.21,39.74,55.47,91.07,75.34,129.16-14.07,0-26.49,5.8-38.08,10.76-32.29,15.73-35.6,9.94-68.72,14.9,6.62-7.45,12.42-17.39,11.59-27.32-.83-5.8-4.97-10.76-9.94-13.25,4.97-9.11,16.56-22.35,13.25-37.26-1.66-6.62-7.45-12.42-14.07-14.9,24.01-56.3,24.01-52.99,23.18-56.3,1.66-.83,6.62-4.97,7.45-5.8h0ZM124.69,237.79c4.14-4.14,9.11-9.11,13.25-8.28,3.31.83,8.28,5.8,14.9,6.62,18.21,2.48,33.94-30.63,44.71-44.71,11.59-16.56,22.35-33.12,33.12-49.68,3.31,5.8,6.62,12.42,9.11,19.04,0,.83.83,1.66,1.66,2.48-2.48,1.66,0-.83-28.98,64.58-2.48,5.8,3.31,10.76,8.28,8.28,3.31-1.66,7.45,2.48,8.28,5.8,1.66,7.45-4.14,16.56-8.28,22.35-3.31,4.97-6.62,9.94-8.28,15.73-1.66,5.8,4.14,10.76,9.11,7.45h.83c5.8,2.48,1.66,11.59-2.48,16.56-2.48,4.14-7.45,6.62-8.28,14.9-45.54,8.28-65.41,16.56-96.04,10.76-2.48-.83-20.7-7.45-29.81-10.76,13.25-22.35,26.49-66.23,38.91-81.14h0Z" style="fill: #dea96f;"/>
  </g>
</svg>