<?xml version="1.0" encoding="UTF-8"?>
<svg id="Layer_1" data-name="Layer 1" xmlns="http://www.w3.org/2000/svg" viewBox="0 0 512 512">
  <defs>
    <style>
      .cls-1 {
        fill: #001a3a;
      }

      .cls-2 {
        fill: #fec929;
      }

      .cls-3 {
        fill: #d9821a;
      }

      .cls-4 {
        fill: #2e6895;
      }
    </style>
  </defs>
  <path id="SVGCleanerId_0" data-name="SVGCleanerId 0" class="cls-4" d="M256.09,13.09C119.15,13.09,8.1,124.56,8.1,262.09c0,109.99,71.05,203.32,169.63,236.24,12.39,2.3,16.91-5.39,16.91-12,0-5.9-.22-21.56-.34-42.34-69,15.06-83.55-33.38-83.55-33.38-11.26-28.77-27.52-36.41-27.52-36.41-22.53-15.46,1.7-15.16,1.7-15.16,24.88,1.75,37.98,25.67,37.98,25.67,22.14,38.05,58.06,27.05,72.19,20.67,2.23-16.08,8.66-27.06,15.74-33.28-55.06-6.3-112.94-27.64-112.94-123.04,0-27.18,9.66-49.41,25.52-66.83-2.57-6.3-11.07-31.6,2.42-65.87,0,0,20.83-6.69,68.2,25.52,19.78-5.52,41-8.28,62.1-8.39,21.05.11,42.28,2.86,62.1,8.39,47.33-32.21,68.13-25.52,68.13-25.52,13.52,34.27,5.02,59.58,2.46,65.87,15.9,17.42,25.5,39.65,25.5,66.83,0,95.64-57.98,116.68-113.23,122.86,8.9,7.69,16.83,22.87,16.83,46.11,0,33.3-.3,60.13-.3,68.3,0,6.67,4.47,14.42,17.05,11.97,98.46-32.98,169.44-126.25,169.44-236.21,0-137.54-111.05-249-248.01-249Z"/>
  <path id="SVGCleanerId_0-2" data-name="SVGCleanerId 0" class="cls-4" d="M256.09,13.09C119.15,13.09,8.1,124.56,8.1,262.09c0,109.99,71.05,203.32,169.63,236.24,12.39,2.3,16.91-5.39,16.91-12,0-5.9-.22-21.56-.34-42.34-69,15.06-83.55-33.38-83.55-33.38-11.26-28.77-27.52-36.41-27.52-36.41-22.53-15.46,1.7-15.16,1.7-15.16,24.88,1.75,37.98,25.67,37.98,25.67,22.14,38.05,58.06,27.05,72.19,20.67,2.23-16.08,8.66-27.06,15.74-33.28-55.06-6.3-112.94-27.64-112.94-123.04,0-27.18,9.66-49.41,25.52-66.83-2.57-6.3-11.07-31.6,2.42-65.87,0,0,20.83-6.69,68.2,25.52,19.78-5.52,41-8.28,62.1-8.39,21.05.11,42.28,2.86,62.1,8.39,47.33-32.21,68.13-25.52,68.13-25.52,13.52,34.27,5.02,59.58,2.46,65.87,15.9,17.42,25.5,39.65,25.5,66.83,0,95.64-57.98,116.68-113.23,122.86,8.9,7.69,16.83,22.87,16.83,46.11,0,33.3-.3,60.13-.3,68.3,0,6.67,4.47,14.42,17.05,11.97,98.46-32.98,169.44-126.25,169.44-236.21,0-137.54-111.05-249-248.01-249Z"/>
  <g>
    <path class="cls-2" d="M386.59,117.06c13.13,33.9,4.75,58.93,2.2,65.18,15.9,17.42,25.5,39.65,25.5,66.83,0,95.64-57.98,116.68-113.23,122.86,8.9,7.69,16.83,22.87,16.83,46.11,0,33.3-.3,60.13-.3,68.3,0,6.67,4.47,14.42,17.05,11.97,98.46-32.98,169.45-126.25,169.45-236.21,0-29.56-5.15-57.9-14.57-84.2-34.19-36-72.25-59.98-102.94-60.83Z"/>
    <path class="cls-2" d="M201.07,385.25c2.78-5.62,6.18-9.98,9.76-13.14-30.18-3.46-61.17-11.51-83.05-33.74,16.83,28.02,44.24,40.76,73.29,46.89Z"/>
  </g>
  <path class="cls-3" d="M21.01,278.88c0-137.54,111.05-249,247.99-249,76.04,0,144.06,34.39,189.54,88.49-44.92-63.68-118.82-105.27-202.45-105.27C119.15,13.09,8.1,124.56,8.1,262.09c0,61.32,22.12,117.42,58.75,160.79-28.81-40.66-45.84-90.31-45.84-144.01Z"/>
  <path class="cls-1" d="M330.81,434.83c0-23.23-7.93-38.44-16.83-46.13,55.25-6.16,113.24-27.22,113.24-122.85,0-27.18-9.6-49.4-25.52-66.82,2.58-6.3,11.1-31.61-2.46-65.87,0,0-2.58-.79-7.9-.49,5.81,25.84-.42,44.32-2.55,49.57,15.9,17.42,25.5,39.65,25.5,66.83,0,95.64-57.98,116.68-113.23,122.86,8.9,7.69,16.83,22.87,16.83,46.11,0,33.3-.3,60.13-.3,68.3,0,5.87,3.5,12.57,12.92,12.41.06-11.26.29-35.15.29-63.91Z"/>
  <path class="cls-2" d="M125.56,431.93c5.21,10.72,22.71,36.4,68.89,30.99-.06-5.65-.11-11.98-.14-18.93-35.62,7.78-56.66-1.39-68.74-12.06Z"/>
  <path class="cls-3" d="M134.47,399.32c-1.59-2.4-4.58-6.47-8.9-10.54,2.81,4.17,5.79,7.66,8.9,10.54Z"/>
</svg>