<svg id="Layer_1" enable-background="new 0 0 512 512" viewBox="0 0 512 512" xmlns="http://www.w3.org/2000/svg" xmlns:xlink="http://www.w3.org/1999/xlink"><linearGradient id="lg1"><stop offset="0" stop-color="#26f09b"/><stop offset="1" stop-color="#05a0fa"/></linearGradient><linearGradient id="SVGID_1_" gradientTransform="matrix(1 0 0 -1 0 513.96)" gradientUnits="userSpaceOnUse" x1="241.048" x2="241.048" xlink:href="#lg1" y1="514.66" y2="10.3"/><linearGradient id="SVGID_00000088108190713977599370000018421007098269484207_" gradientTransform="matrix(1 0 0 -1 0 513.96)" gradientUnits="userSpaceOnUse" x1="386.954" x2="386.954" xlink:href="#lg1" y1="514.66" y2="10.3"/><g id="Layer_2_00000134935568469651603590000016508864782687506608_"><g id="internet_cursor"><path d="m280.6 406.1c-12.5 20.2-26.6 31.8-39.6 31.8-16.4 0-34.9-18.7-49.2-49.9-6.8-15.1-12.1-30.7-16-46.8h86.9l-13-47.2h-82.2c-3.7-33.2-3.7-66.6 0-99.8h147.2c1.9 16.6 2.8 33.2 2.8 49.9 0 3 0 6-.1 9l3.2.9 43.6 12c.3-7.2.5-14.5.5-21.8 0-16.7-.8-33.3-2.5-49.9h66.3c7.8 29.4 8.6 60.2 2.3 90l19.1 5.2 1.5.4 20.5 5.6c1.5.4 3 .9 4.5 1.6 3.9-17.4 5.8-35.1 5.8-52.9-.1-133.2-107.9-241.2-241.1-241.2-64 0-125.3 25.4-170.5 70.6-94.1 94.1-94.1 246.8 0 340.9 45.2 45.2 106.5 70.6 170.5 70.6 20.5 0 40.9-2.6 60.7-7.7-1.7-2.9-3.1-5.9-3.9-9.2zm128.2-259.2h-54.1c-5.2-24.3-12.5-46.8-21.5-66.5-1.5-3.2-3-6.3-4.5-9.3 33.4 17.1 61.2 43.4 80.1 75.8zm-217-46.8c14.4-31.3 32.8-49.9 49.2-49.9s34.8 18.7 49.2 49.9c6.8 15.1 12.1 30.7 16 46.8h-130.4c3.9-16 9.2-31.7 16-46.8zm-138.1 193.9c-8.7-32.7-8.7-67.1 0-99.8h66.3c-3.3 33.2-3.3 66.6 0 99.8zm19.6 47.2h54.1c5.2 24.3 12.5 46.8 21.5 66.5 1.5 3.2 3 6.3 4.5 9.3-33.4-17.1-61.2-43.4-80.1-75.8zm75.6-260.7c-9.1 19.7-16.3 42.2-21.5 66.5h-54.1c18.9-32.4 46.7-58.7 80.1-75.8-1.5 2.9-3 6-4.5 9.3z" fill="url(#SVGID_1_)"/><path d="m505.3 412.1-46-46 18.9-18.7c9-8.9 9.1-23.5.2-32.5-1.6-1.7-3.5-3.1-5.6-4.2-1.5-.8-3.1-1.4-4.7-1.9l-20.4-5.6-1.6-.4-18.8-5.1-13.8-3.7-18.9-5.2-31.3-8.6-46.5-12.8-25.8-7.1c-12.2-3.4-24.9 3.8-28.3 16.1-1.1 4-1.1 8.2 0 12.3l1.5 5.3 13 47.2 13 47 .7 2.4 14.1 50.9 6.4 23c.9 3.2 2.5 6.2 4.6 8.8 8.2 9.7 22.7 10.9 32.4 2.6.4-.4.9-.8 1.3-1.2l19-18.9 46.4 46.4c9 9 23.5 9 32.5 0l57.6-57.6c9.1-8.9 9.1-23.5.1-32.5zm-73.9 41.4-29.7-29.7-32.8-32.8-23.7 23.5-1.6-5.9-1.1-3.9-3.2-11.5-10.9-39.5-3.5-12.6-7.1-25.7 38.8 10.6 1 .3 50.5 13.9 1.1.3 2.5.7 5.9 1.6-23.6 23.2 32.3 32.3 30.1 30.1z" fill="url(#SVGID_00000088108190713977599370000018421007098269484207_)"/></g></g></svg>