<?xml version="1.0" encoding="UTF-8"?>
<svg id="Layer_1" xmlns="http://www.w3.org/2000/svg" version="1.1" viewBox="0 0 12 12">
  <!-- Generator: Adobe Illustrator 29.0.1, SVG Export Plug-In . SVG Version: 2.1.0 Build 192)  -->
  <defs>
    <style>
      .st0 {
        fill: #388cb2;
      }

      .st1 {
        fill: #6fbfde;
      }
    </style>
  </defs>
  <path class="st1" d="M6.6,7.5v3.4c0,.2-.2.4-.4.4s-.4-.2-.4-.4v-3.4c0-.2.2-.4.4-.4s.4.2.4.4M9.9,4.5h-2.8l2-2c.1-.1.1-.4,0-.5s-.4-.1-.5,0l-2,2V1.1c0-.2-.2-.4-.4-.4s-.4.2-.4.4v2.8l-2-2c-.1-.1-.4-.1-.5,0s-.1.4,0,.5l2,2h-2.8c-.2,0-.4.2-.4.4s.2.4.4.4h2.8l-2,2c-.1.1-.1.4,0,.5.1.1.4.1.5,0l2.4-2.4,2.4,2.4c.1.1.4.1.5,0s.1-.4,0-.5l-2-2h2.8c.2,0,.4-.2.4-.4s-.2-.4-.4-.4"/>
  <path class="st0" d="M6.4,7.5v3.4c0,.2-.2.4-.4.4s-.4-.2-.4-.4v-3.4c0-.2.2-.4.4-.4s.4.2.4.4M9.8,4.5h-2.8l2-2c.1-.1.1-.4,0-.5s-.4-.1-.5,0l-2,2V1.1c0-.2-.2-.4-.4-.4s-.4.2-.4.4v2.8l-2-2c-.1-.1-.4-.1-.5,0s-.1.4,0,.5l2,2h-2.8c-.2,0-.4.2-.4.4s.2.4.4.4h2.8l-2,2c-.1.1-.1.4,0,.5.1.1.4.1.5,0l2.4-2.4,2.4,2.4c.1.1.4.1.5,0s.1-.4,0-.5l-2-2h2.8c.2,0,.4-.2.4-.4s-.2-.4-.4-.4"/>
</svg>