<?xml version="1.0" encoding="UTF-8"?>
<svg id="Layer_1" data-name="Layer 1" xmlns="http://www.w3.org/2000/svg" viewBox="0 0 512 512">
  <defs>
    <style>
      .cls-1 {
        fill: #628dba;
      }

      .cls-2 {
        fill: #f0b80c;
      }
    </style>
  </defs>
  <path class="cls-2" d="M271.32,320.79v152.4c0,9.35-8.63,16.93-19.28,16.93s-19.28-7.58-19.28-16.93v-152.4c0-9.35,8.63-16.93,19.28-16.93s19.28,7.58,19.28,16.93M444.82,185.33h-146.24l102.05-89.62c7.53-6.62,7.53-17.34,0-23.96-7.53-6.62-19.74-6.62-27.28,0l-102.02,89.64V32.93c0-9.35-8.63-16.93-19.28-16.93s-19.28,7.58-19.28,16.93v128.46l-102.02-89.64c-7.53-6.62-19.74-6.62-27.28,0-7.53,6.62-7.53,17.34,0,23.96l102.05,89.62H59.28c-10.65,0-19.28,7.58-19.28,16.93s8.63,16.93,19.28,16.93h146.24l-102.05,89.62c-7.53,6.62-7.53,17.34,0,23.96,7.53,6.62,19.74,6.62,27.28,0l121.3-106.57,121.3,106.57c7.53,6.62,19.74,6.62,27.28,0,7.53-6.62,7.53-17.34,0-23.96l-102.05-89.62h146.24c10.65,0,19.28-7.58,19.28-16.93s-8.63-16.93-19.28-16.93"/>
  <path class="cls-1" d="M284.23,326.67v152.4c0,9.35-8.63,16.93-19.28,16.93s-19.28-7.58-19.28-16.93v-152.4c0-9.35,8.63-16.93,19.28-16.93s19.28,7.58,19.28,16.93M457.72,191.21h-146.24l102.05-89.62c7.53-6.62,7.53-17.34,0-23.96-7.53-6.62-19.74-6.62-27.28,0l-102.02,89.64V38.81c0-9.35-8.63-16.93-19.28-16.93s-19.28,7.58-19.28,16.93v128.46l-102.02-89.64c-7.53-6.62-19.74-6.62-27.28,0-7.53,6.62-7.53,17.34,0,23.96l102.05,89.62H72.18c-10.65,0-19.28,7.58-19.28,16.93s8.63,16.93,19.28,16.93h146.24l-102.05,89.62c-7.53,6.62-7.53,17.34,0,23.96,7.53,6.62,19.74,6.62,27.28,0l121.3-106.57,121.3,106.57c7.53,6.62,19.74,6.62,27.28,0,7.53-6.62,7.53-17.34,0-23.96l-102.05-89.62h146.24c10.65,0,19.28-7.58,19.28-16.93s-8.63-16.93-19.28-16.93"/>
</svg>