<?xml version="1.0" encoding="UTF-8"?>
<svg id="Layer_1" data-name="Layer 1" xmlns="http://www.w3.org/2000/svg" viewBox="0 0 512 512">
  <defs>
    <style>
      .cls-1 {
        fill: #835942;
      }

      .cls-2 {
        fill: #0f3151;
      }

      .cls-3 {
        fill: #fdc929;
      }

      .cls-4 {
        fill: #657f9c;
      }

      .cls-5 {
        fill: #ca8242;
      }

      .cls-6 {
        fill: #c39a60;
      }

      .cls-7 {
        fill: #c3d2e2;
      }
    </style>
  </defs>
  <path class="cls-5" d="M35.22,13h378.39c13.38,0,24.22,10.76,24.22,24.02v242.04c0,13.27-10.84,24.02-24.22,24.02H35.22c-13.38,0-24.22-10.76-24.22-24.02V37.02c0-13.27,10.84-24.02,24.22-24.02Z"/>
  <path class="cls-6" d="M428.02,297.97c6.19-4.7,9.83-11.99,9.82-19.72V37.85c0-13.72-11.22-24.85-25.05-24.85t0,0h-242.43l257.15,284.78.52.19Z"/>
  <path class="cls-6" d="M278.48,13H36.05c-13.84,0-25.05,11.13-25.05,24.85v240.39c0,7.49,3.41,14.59,9.28,19.3l1.05.23L278.48,13Z"/>
  <path class="cls-3" d="M412.78,13H36.05c-13.84,0-25.05,11.13-25.05,24.85v9.55l180.8,123.57c19.64,13.42,45.6,13.42,65.24,0l180.8-123.57v-9.55c0-13.72-11.22-24.85-25.05-24.85t0,0h0Z"/>
  <path class="cls-1" d="M122.14,499c-4.23,0-7.66-3.4-7.66-7.59,0-2.24,1-4.37,2.72-5.81l105.84-87.25c3.18-2.76,8.02-2.44,10.8.71,2.78,3.16,2.46,7.95-.72,10.72-.07.06-.15.12-.22.18l-105.84,87.25c-1.38,1.15-3.12,1.79-4.93,1.79Z"/>
  <path class="cls-4" d="M211.91,482.47c-4.23,0-7.66-3.4-7.66-7.59,0-2.19.95-4.27,2.61-5.72l26.05-23.61c3.17-2.78,8.01-2.48,10.81.67,2.8,3.14,2.5,7.94-.67,10.72-.01.01-.03.03-.04.04l-26.05,23.61c-1.39,1.22-3.19,1.89-5.05,1.88h0Z"/>
  <path class="cls-2" d="M240.3,332.27l48.3,114.76,88.24-131.3,124.06-117.24-260.61,133.78Z"/>
  <path class="cls-7" d="M500.91,197.64l-254.6,147.3-74.91-19.28,329.51-128.02Z"/>
  <path class="cls-4" d="M411.25,295.05l-122.64,151.97,14.47-87.04,108.17-64.93Z"/>
  <path class="cls-7" d="M500.91,198.48c.07-.22.16-.38,0-.22l-197.83,161.72,122.55,33.09,75.28-194.58Z"/>
</svg>