<?xml version="1.0" encoding="UTF-8"?>
<svg id="Layer_1" xmlns="http://www.w3.org/2000/svg" version="1.1" viewBox="0 0 1124.4 572">
  <!-- Generator: Adobe Illustrator 29.0.1, SVG Export Plug-In . SVG Version: 2.1.0 Build 192)  -->
  <defs>
    <style>
      .st0 {
        fill: #6f84de;
      }

      .st1 {
        fill: #dea96f;
      }
    </style>
  </defs>
  <g>
    <path class="st1" d="M493.1,76.6c-12.3,0-22.3,7.7-22.3,17.1s10,17.1,22.3,17.1,22.3-7.7,22.3-17.1-10-17.1-22.3-17.1h0ZM493.1,98.8c-5.2,0-9.1-2.7-9.1-5.1s3.9-5.1,9.1-5.1,9.1,2.7,9.1,5.1-3.7,5.1-9.1,5.1Z"/>
    <path class="st1" d="M1044,311c0-1.4-.1-2.8-.4-4.2-6.8-36.8-51.3-182.9-145-224.3-80.8-35.7-140.7-17.7-176.5-6.9-6.4,1.9-11.9,3.6-16.7,4.7-25.2,5.9-32.9-1.7-36.7-5.3-.6-.6-1.5-1.7-2.5-3-.9-1.2-2-2.6-3.3-4.1.2-2.7.3-5.4,0-7.8-.9-8.6-4.6-15.8-10.7-21,1.8-4.5,2.4-10.3,1.4-15.6-1.2-6.4-5.2-15.2-17.3-20.7-22.7-10.2-51.8,10.2-63.4,25.7-25.1-2.2-50.5-.7-66.3,2.4-13.6,2.6-46,12.8-79,24.7-60.5,21.9-62,27.3-62.9,30.5-5.8,20.8,36,41.4,36.4,41.6,5.1,2.5,12.5,4.8,20.1,6.9-6.5,4.5-10,8.6-9.4,13.3.2,2.1,1.6,6,7.9,8.1,3.7,1.2,9.5,2.9,16.5,5,23.4,6.9,85.5,25.3,92.3,36.3,10.3,16.8,49.8,73.6,77.4,102.1,1,1,2,1.9,2.9,2.8,4.6,18.1-4.4,50.1-6,55.5-3.1,1.5-12.7,4.2-28.8,5.3-9.3.7-15.8,3.6-19.5,8.8-5.1,7.1-2.2,15.1-1.9,16l1.5,3.9h4.6c.7.1,7.2.2,16.1.2,14,0,34-.3,46.8-2,10-1.3,18-8,24-15.8-1.6,9.7-4,19-5.6,24.2-3.1,1.5-12.7,4.2-28.8,5.3-9.3.7-15.8,3.6-19.5,8.8-5.1,7.1-2.2,15.1-1.9,16l1.5,3.9h4.6c.7.1,7.2.2,16.1.2,14,0,34.1-.3,46.9-2,22.7-2.9,33-22.4,34.5-25.4,2.2-3.5,19.6-32.4,27.6-60.8,10.6,2.4,32.1,7.2,53.2,11.5,0,0,0,.1.2.2-17.4,1.6-29,6.2-34.3,14-5.4,7.8-2.2,15.3-1.9,16.1l1.8,4,4.8-.3c.4,0,35.5-2.2,72.4-5.2,10,4.2,19.3,6.9,26.8,8.6-9.4,4.3-24.2,9.1-45.1,10.4-19.6,1.2-32.5,6-38.2,14.3-5.4,7.8-2.2,15.3-1.9,16.1l1.8,4,4.8-.3c4.3-.3,106.6-7.2,129.3-10.7,19.2-3,22.5-12,25-18.6,1-2.5,1.8-4.7,3.4-6.4,1-1,2.3-2,3.6-3.1,5.3-4.2,9.6-8.7,10.1-15.5h.1c29.4,0,61.3-14.6,82-31.6,29.8,10.2,59.1,46.2,55.2,82.4-4.7,44.2-38.6,90.2-119.6,86.3-31.5-1.5-52.3-10.4-72.5-18.9-27.3-11.5-53-22.5-99.1-14.2-62.1,11.1-82.4,55.3-82.2,73.8.1,8.2,4.7,10.2,7.4,10.6.5,0,1,.1,1.4.1,7.2,0,10.8-8.8,12.4-12.8,13.5-33,53.4-48.3,94.8-36.2,8.8,2.6,19.2,6.2,31.2,10.5,49.5,17.6,117.3,41.6,175.4,22.6,54.8-17.9,113.5-67,98.4-146.1-13-68.2-62.3-92.8-77.9-98.9h0ZM630.6,13.4c5.3,2.4,8.6,6.1,9.9,10.9.8,3,.6,5.9.2,8.1,0,0-.2,0-.2,0-10.9-3.6-21.1-1.8-30,2.7-6.9-2.1-14.3-3.6-22-4.8,10.4-10.5,29.3-22.6,42.2-16.8h0ZM619.8,378.1c-15.3,2-42.9,1.9-54.9,1.8.1-.6.3-1.1.7-1.6,1.3-1.8,4.7-3,9.5-3.4,7.6-.6,32.9-2.9,38.8-10.2.9-1.1,1.5-2.5,1.6-3.8,1.4-4.5,7.5-26.1,7.8-45.5,10.2,9.1,19.2,18.4,22.9,31.3-3.5,9.2-13.8,29.8-26.4,31.5h0ZM750.9,377.6c.2-.4.4-.7.6-1.1,1.9-2.7,8-7.5,27.8-8.7,2.9-.2,5.3-.5,7.2-.8,3.5,2.7,7.1,5.1,10.7,7.4-19.8,1.5-37.2,2.7-46.3,3.3h0ZM934.4,371.5c-1.8-4.2-4.5-9-8.6-14.6-2-2.8-6.1-3.6-9.2-1.8-3.1,1.8-4,5.5-2,8.3,4.5,6.2,7,10.7,8.1,14.1,0,.8.2,1.5.6,2.2,1,5.3-1.8,7.6-5.4,10.5-1.5,1.2-3.1,2.5-4.7,4.1-3.4,3.5-4.8,7.2-6.1,10.5-2,5.5-3.3,8.8-14.7,10.6-18.7,2.9-97.3,8.5-121.1,10.1.2-.4.4-.8.7-1.2,1.9-2.7,8.1-7.3,27.7-8.5,45.2-2.8,65.3-20.5,66.1-21.2l10-9-14.1-1.1c-.4,0-43.2-3.8-74.4-32.8-9-8.3-12-16.4-9.4-24.6,3.8-12.2,19.2-21.1,22.9-22,3.4-.3,6-2.8,6-6s-3-6-6.6-6c-7,0-26.4,11.5-33.5,26.6-2.7,5.8-4.4,13.6-1.4,22.4-17.3-3.6-33.4-7.2-41.8-9.1,1.3-7.3,1.7-14.3.7-20.5-.5-3.3-3.8-5.6-7.5-5.1-3.6.4-6.2,3.5-5.7,6.7.9,6.1.3,13.2-1.3,20.7-.2.4-.4.8-.5,1.2-.2.6-.2,1.1-.2,1.7-7.1,29-27.4,61.9-27.7,62.3l-.4.7c0,.2-7.6,16.4-24.3,18.5-15.3,2-42.9,1.9-54.9,1.8.1-.6.3-1.1.7-1.6,1.3-1.8,4.7-3,9.5-3.4,7.6-.6,32.9-2.9,38.8-10.2,1-1.2,1.5-2.5,1.6-3.8,1.7-5.7,11-38.6,6.7-56.1,0-.1,0-.2,0-.3,0,0,0-.1,0-.2-4.7-18.6-18-30.4-30.8-41.7-4.3-3.8-8.8-7.8-12.7-11.8-27-27.9-65.7-83.6-75.8-100-8.6-13.9-54-28.3-99.7-41.9-5.2-1.6-9.8-2.9-13.2-4,1.9-1.5,5.2-3.7,11.1-7,8.1,1.7,14.2,2.9,14.8,2.9,3.6.6,7.1-1.5,7.8-4.7s-1.6-6.4-5.2-7c-3.3-.6-8.8-1.7-15-3-1-.5-2.1-.8-3.3-.7-11-2.5-23.3-5.8-29.8-8.9-12.6-6.2-30.3-19.7-30-27.2,11.1-8.5,104.1-42,131.9-47.4,21-4.1,58.3-4.9,87.6,1.6-15,12.9-24.5,30.5-25.1,31.8-1.6,3-.2,6.6,3.1,8,2,.9,4.3.7,6.2-.2,1.1-.6,2.1-1.5,2.7-2.6.2-.5,25.4-46.3,52-37.5,10.4,3.4,13.4,11.5,14,17.6,1.8,17.5-12.8,43.9-44.2,60.6,0,0,0,0,0,0-3.2,1.7-4.2,5.3-2.3,8.2,1.2,1.9,3.4,2.9,5.7,2.9s2.3-.3,3.3-.8c25.3-13.4,40.3-31.9,46.9-48.8,4.7,4.7,17,16.4,49.6,8.7,5.2-1.2,10.9-2.9,17.5-4.9,36-10.9,90.5-27.3,166.4,6.3,87.7,38.8,131.6,182.1,137.8,215.5,1.6,8.4-3.8,18.9-15,29.6-18.2,17.3-52.1,34.2-81.2,33.1h0ZM1019,544.9c-53.4,17.5-118.5-5.7-166.1-22.5-12.2-4.3-22.7-8.1-32-10.8-33.2-9.7-65.7-4.1-88,13.2,10.5-10.5,27.1-20.9,52.7-25.5,41.8-7.5,64.5,2.2,90.9,13.3,20.3,8.6,43.4,18.4,77.4,20,90.5,4.3,128.4-49.6,133.5-97.1,4.3-40.5-25.9-78.8-58.6-92.7,6.1-6.5,10.4-13.1,12.8-19.5,15.9,7.1,56.1,30.6,67.2,88.7,13.7,71.9-39.8,116.5-89.9,132.9h0Z"/>
  </g>
  <g>
    <path class="st0" d="M313.4,381.9c-1.3-.3-2.7-.6-4-.9-5.7-1.2-11.4,2.5-12.5,8.3-1.2,5.7,2.5,11.4,8.3,12.5,1.1.2,2.3.5,3.4.7.8.2,1.6.3,2.4.3,4.8,0,9.2-3.3,10.3-8.2,1.3-5.7-2.2-11.4-7.9-12.8Z"/>
    <path class="st0" d="M550,507.7h-25.4c-5.2-38.9-38.6-69.1-79-69.1h-16.8c0,0-.2,0-.3,0v-20.6c0-5.9-4.8-10.6-10.6-10.6s-10.6,4.8-10.6,10.6v17.3c-10.4-3.3-19.8-8.9-27.4-16.5-10.3-10.3-22.2-18.8-35.1-25.4-5.2-2.7-11.6-.6-14.3,4.6-2.7,5.2-.6,11.6,4.6,14.3,11,5.6,21,12.8,29.8,21.6,13.7,13.6,32.1,22.5,51.6,25.1,0,0,.2,0,.3,0,0,0,0,0,0,0,4,.5,8,.8,11.9.8h16.8c28.6,0,52.5,20.7,57.5,47.9h-118.1v-10.6c0-5.9-4.8-10.6-10.6-10.6s-10.6,4.8-10.6,10.6v10.6h-37.3c-4.8-21.4-24-37.4-46.8-37.4h-6.7v-.2c0-28.1-22.8-50.9-50.9-50.9h-13.7c19.2-12.8,41.8-19.7,65.6-19.7s10.6-4.8,10.6-10.6-4.8-10.6-10.6-10.6c-38.4,0-75.5,16-101.9,44,0,0-.1.1-.2.2,0,0,0,0-.1.1-21.8,23.3-34.9,52.9-37.4,84.5-36.3-5-64.4-36.2-64.4-73.9v-1.7c0-41.1,33.4-74.6,74.6-74.6s10.6-4.8,10.6-10.6-4.8-10.6-10.6-10.6c-52.8,0-95.8,43-95.8,95.8v1.7c0,52.7,42.8,95.7,95.5,95.8,0,0,.2,0,.3,0h370.3c0,0,.1,0,.2,0h35.1c5.9,0,10.6-4.8,10.6-10.6s-4.8-10.6-10.6-10.6ZM155.6,507.7c2.2-24.9,12.2-48.4,28.6-67.3h37.8c16.4,0,29.7,13.3,29.7,29.7v.2h-29.7c-5.9,0-10.6,4.8-10.6,10.6s4.8,10.6,10.6,10.6h57.6c11,0,20.5,6.7,24.6,16.2h-148.6Z"/>
    <path class="st0" d="M448.1,469.8c-5.9,0-10.6,4.8-10.6,10.6v7.2c0,5.9,4.8,10.6,10.6,10.6s10.6-4.8,10.6-10.6v-7.2c0-5.9-4.8-10.6-10.6-10.6Z"/>
  </g>
</svg>