<?xml version="1.0" encoding="UTF-8"?>
<svg id="Layer_1" data-name="Layer 1" xmlns="http://www.w3.org/2000/svg" viewBox="0 0 1108 680">
  <g>
    <path d="M466.6,121.31c-12.06,0-21.87,7.55-21.87,16.77s9.81,16.77,21.87,16.77,21.87-7.55,21.87-16.77-9.81-16.77-21.87-16.77h0ZM466.6,143.08c-5.1,0-8.92-2.65-8.92-5s3.82-5,8.92-5,8.92,2.65,8.92,5-3.63,5-8.92,5Z" style="fill: #dea96f;"/>
    <path d="M1006.81,351.16c0-1.37-.1-2.75-.39-4.12-6.67-36.09-50.3-179.35-142.19-219.95-79.23-35.01-137.97-17.36-173.07-6.77-6.28,1.86-11.67,3.53-16.38,4.61-24.71,5.79-32.26-1.67-35.99-5.2-.59-.59-1.47-1.67-2.45-2.94-.88-1.18-1.96-2.55-3.24-4.02.2-2.65.29-5.3,0-7.65-.88-8.43-4.51-15.49-10.49-20.59,1.77-4.41,2.35-10.1,1.37-15.3-1.18-6.28-5.1-14.9-16.96-20.3-22.26-10-50.79,10-62.17,25.2-24.61-2.16-49.52-.69-65.01,2.35-13.34,2.55-45.11,12.55-77.47,24.22-59.33,21.47-60.8,26.77-61.68,29.91-5.69,20.4,35.3,40.6,35.69,40.79,5,2.45,12.26,4.71,19.71,6.77-6.37,4.41-9.81,8.43-9.22,13.04.2,2.06,1.57,5.88,7.75,7.94,3.63,1.18,9.32,2.84,16.18,4.9,22.95,6.77,83.84,24.81,90.51,35.6,10.1,16.47,48.83,72.17,75.9,100.12.98.98,1.96,1.86,2.84,2.75,4.51,17.75-4.31,49.13-5.88,54.42-3.04,1.47-12.45,4.12-28.24,5.2-9.12.69-15.49,3.53-19.12,8.63-5,6.96-2.16,14.81-1.86,15.69l1.47,3.82h4.51c.69.1,7.06.2,15.79.2,13.73,0,33.34-.29,45.89-1.96,9.81-1.27,17.65-7.84,23.53-15.49-1.57,9.51-3.92,18.63-5.49,23.73-3.04,1.47-12.45,4.12-28.24,5.2-9.12.69-15.49,3.53-19.12,8.63-5,6.96-2.16,14.81-1.86,15.69l1.47,3.82h4.51c.69.1,7.06.2,15.79.2,13.73,0,33.44-.29,45.99-1.96,22.26-2.84,32.36-21.97,33.83-24.91,2.16-3.43,19.22-31.77,27.06-59.62,10.39,2.35,31.48,7.06,52.17,11.28,0,0,0,.1.2.2-17.06,1.57-28.44,6.08-33.63,13.73-5.3,7.65-2.16,15-1.86,15.79l1.77,3.92,4.71-.29c.39,0,34.81-2.16,70.99-5.1,9.81,4.12,18.93,6.77,26.28,8.43-9.22,4.22-23.73,8.92-44.22,10.2-19.22,1.18-31.87,5.88-37.46,14.02-5.3,7.65-2.16,15-1.86,15.79l1.77,3.92,4.71-.29c4.22-.29,104.53-7.06,126.79-10.49,18.83-2.94,22.06-11.77,24.51-18.24.98-2.45,1.77-4.61,3.33-6.28.98-.98,2.26-1.96,3.53-3.04,5.2-4.12,9.41-8.53,9.9-15.2h.1c28.83,0,60.11-14.32,80.41-30.99,29.22,10,57.95,45.3,54.13,80.8-4.61,43.34-37.85,88.45-117.28,84.62-30.89-1.47-51.28-10.2-71.09-18.53-26.77-11.28-51.97-22.06-97.18-13.92-60.89,10.88-80.8,54.23-80.6,72.37.1,8.04,4.61,10,7.26,10.39.49,0,.98.1,1.37.1,7.06,0,10.59-8.63,12.16-12.55,13.24-32.36,52.36-47.36,92.96-35.5,8.63,2.55,18.83,6.08,30.59,10.3,48.54,17.26,115.02,40.79,172,22.16,53.74-17.55,111.3-65.7,96.49-143.26-12.75-66.88-61.09-91-76.39-96.98h.2ZM601.43,59.34c5.2,2.35,8.43,5.98,9.71,10.69.78,2.94.59,5.79.2,7.94h-.2c-10.69-3.53-20.69-1.77-29.42,2.65-6.77-2.06-14.02-3.53-21.57-4.71,10.2-10.3,28.73-22.16,41.38-16.47h0l-.1-.1ZM590.84,416.96c-15,1.96-42.07,1.86-53.83,1.77.1-.59.29-1.08.69-1.57,1.27-1.77,4.61-2.94,9.32-3.33,7.45-.59,32.26-2.84,38.05-10,.88-1.08,1.47-2.45,1.57-3.73,1.37-4.41,7.35-25.59,7.65-44.62,10,8.92,18.83,18.04,22.46,30.69-3.43,9.02-13.53,29.22-25.89,30.89h0v-.1ZM719.39,416.47c.2-.39.39-.69.59-1.08,1.86-2.65,7.84-7.35,27.26-8.53,2.84-.2,5.2-.49,7.06-.78,3.43,2.65,6.96,5,10.49,7.26-19.42,1.47-36.48,2.65-45.4,3.24h0v-.1ZM899.33,410.49c-1.77-4.12-4.41-8.83-8.43-14.32-1.96-2.75-5.98-3.53-9.02-1.77-3.04,1.77-3.92,5.39-1.96,8.14,4.41,6.08,6.86,10.49,7.94,13.83,0,.78.2,1.47.59,2.16.98,5.2-1.77,7.45-5.3,10.3-1.47,1.18-3.04,2.45-4.61,4.02-3.33,3.43-4.71,7.06-5.98,10.3-1.96,5.39-3.24,8.63-14.41,10.39-18.34,2.84-95.41,8.34-118.75,9.9.2-.39.39-.78.69-1.18,1.86-2.65,7.94-7.16,27.16-8.34,44.32-2.75,64.03-20.1,64.82-20.79l9.81-8.83-13.83-1.08c-.39,0-42.36-3.73-72.96-32.16-8.83-8.14-11.77-16.08-9.22-24.12,3.73-11.96,18.83-20.69,22.46-21.57,3.33-.29,5.88-2.75,5.88-5.88s-2.94-5.88-6.47-5.88c-6.86,0-25.89,11.28-32.85,26.08-2.65,5.69-4.31,13.34-1.37,21.97-16.96-3.53-32.75-7.06-40.99-8.92,1.27-7.16,1.67-14.02.69-20.1-.49-3.24-3.73-5.49-7.35-5-3.53.39-6.08,3.43-5.59,6.57.88,5.98.29,12.94-1.27,20.3-.2.39-.39.78-.49,1.18-.2.59-.2,1.08-.2,1.67-6.96,28.44-26.87,60.7-27.16,61.09l-.39.69c0,.2-7.45,16.08-23.83,18.14-15,1.96-42.07,1.86-53.83,1.77.1-.59.29-1.08.69-1.57,1.27-1.77,4.61-2.94,9.32-3.33,7.45-.59,32.26-2.84,38.05-10,.98-1.18,1.47-2.45,1.57-3.73,1.67-5.59,10.79-37.85,6.57-55.01v-.49c-4.61-18.24-17.65-29.81-30.2-40.89-4.22-3.73-8.63-7.65-12.45-11.57-26.48-27.36-64.42-81.98-74.33-98.06-8.43-13.63-52.95-27.75-97.76-41.09-5.1-1.57-9.61-2.84-12.94-3.92,1.86-1.47,5.1-3.63,10.88-6.86,7.94,1.67,13.92,2.84,14.51,2.84,3.53.59,6.96-1.47,7.65-4.61.69-3.14-1.57-6.28-5.1-6.86-3.24-.59-8.63-1.67-14.71-2.94-.98-.49-2.06-.78-3.24-.69-10.79-2.45-22.85-5.69-29.22-8.73-12.36-6.08-29.71-19.32-29.42-26.67,10.88-8.34,102.08-41.18,129.34-46.48,20.59-4.02,57.17-4.8,85.9,1.57-14.71,12.65-24.02,29.91-24.61,31.18-1.57,2.94-.2,6.47,3.04,7.84,1.96.88,4.22.69,6.08-.2,1.08-.59,2.06-1.47,2.65-2.55.2-.49,24.91-45.4,50.99-36.77,10.2,3.33,13.14,11.28,13.73,17.26,1.77,17.16-12.55,43.05-43.34,59.42h0c-3.14,1.67-4.12,5.2-2.26,8.04,1.18,1.86,3.33,2.84,5.59,2.84s2.26-.29,3.24-.78c24.81-13.14,39.52-31.28,45.99-47.85,4.61,4.61,16.67,16.08,48.64,8.53,5.1-1.18,10.69-2.84,17.16-4.8,35.3-10.69,88.74-26.77,163.17,6.18,86,38.05,129.05,178.57,135.13,211.32,1.57,8.24-3.73,18.53-14.71,29.03-17.85,16.96-51.09,33.54-79.62,32.46h0l.29-.59ZM982.29,580.52c-52.36,17.16-116.2-5.59-162.88-22.06-11.96-4.22-22.26-7.94-31.38-10.59-32.56-9.51-64.42-4.02-86.29,12.94,10.3-10.3,26.57-20.49,51.68-25.01,40.99-7.35,63.25,2.16,89.14,13.04,19.91,8.43,42.56,18.04,75.9,19.61,88.74,4.22,125.91-48.64,130.91-95.22,4.22-39.71-25.4-77.27-57.46-90.9,5.98-6.37,10.2-12.85,12.55-19.12,15.59,6.96,55.01,30.01,65.9,86.98,13.43,70.5-39.03,114.24-88.15,130.32h.1Z" style="fill: #dea96f;"/>
  </g>
  <g>
    <path d="M290.39,420.69c-1.27-.29-2.65-.59-3.92-.88-5.59-1.18-11.18,2.45-12.26,8.14-1.18,5.59,2.45,11.18,8.14,12.26,1.08.2,2.26.49,3.33.69.78.2,1.57.29,2.35.29,4.71,0,9.02-3.24,10.1-8.04,1.27-5.59-2.16-11.18-7.75-12.55v.1Z" style="fill: #6f84de;"/>
    <path d="M522.39,544.05h-24.91c-5.1-38.14-37.85-67.76-77.47-67.76h-16.77v-20.2c0-5.79-4.71-10.39-10.39-10.39s-10.39,4.71-10.39,10.39v16.96c-10.2-3.24-19.42-8.73-26.87-16.18-10.1-10.1-21.77-18.44-34.42-24.91-5.1-2.65-11.37-.59-14.02,4.51-2.65,5.1-.59,11.37,4.51,14.02,10.79,5.49,20.59,12.55,29.22,21.18,13.43,13.34,31.48,22.06,50.6,24.61h.29c3.92.49,7.84.78,11.67.78h16.47c28.04,0,51.48,20.3,56.38,46.97h-115.81v-10.39c0-5.79-4.71-10.39-10.39-10.39s-10.39,4.71-10.39,10.39v10.39h-36.58c-4.71-20.98-23.53-36.67-45.89-36.67h-6.57v-.2c0-27.55-22.36-49.91-49.91-49.91h-13.43c18.83-12.55,40.99-19.32,64.33-19.32s10.39-4.71,10.39-10.39-4.71-10.39-10.39-10.39c-37.65,0-74.03,15.69-99.92,43.15,0,0-.1.1-.2.2l-.1.1c-21.38,22.85-34.22,51.87-36.67,82.86-35.6-4.9-63.15-35.5-63.15-72.47v-1.67c0-40.3,32.75-73.15,73.15-73.15s10.39-4.71,10.39-10.39-4.71-10.39-10.39-10.39c-51.78,0-93.94,42.17-93.94,93.94v1.67c0,51.68,41.97,93.84,93.65,93.94h398.02c5.79,0,10.39-4.71,10.39-10.39s-4.71-10.39-10.39-10.39l-.1-.1ZM135.65,544.05c2.16-24.42,11.96-47.46,28.04-65.99h37.07c16.08,0,29.12,13.04,29.12,29.12v.2h-29.12c-5.79,0-10.39,4.71-10.39,10.39s4.71,10.39,10.39,10.39h56.48c10.79,0,20.1,6.57,24.12,15.89h-145.72Z" style="fill: #6f84de;"/>
    <path d="M422.47,506.88c-5.79,0-10.39,4.71-10.39,10.39v7.06c0,5.79,4.71,10.39,10.39,10.39s10.39-4.71,10.39-10.39v-7.06c0-5.79-4.71-10.39-10.39-10.39Z" style="fill: #6f84de;"/>
  </g>
</svg>