<?xml version="1.0" encoding="UTF-8"?>
<svg id="Layer_1" data-name="Layer 1" xmlns="http://www.w3.org/2000/svg" viewBox="0 0 1124.38 571.95">
  <g>
    <path d="M266.96,340.7c-15.99-4.16-32.75-6.27-49.8-6.27-88.4,0-156.57,52.26-176.13,133.96-3.24-5.85-4.99-12.49-4.99-19.39v-39.83c0-51.22,41.48-92.88,92.46-92.88h54.49c9.93,0,18.01-8.1,18.01-18.07s-8.08-18.06-18.01-18.06h-54.49c-22.28,0-44.25,5.84-63.53,16.89-3.76,2.15-5.06,6.94-2.9,10.7,2.15,3.75,6.94,5.05,10.69,2.9,16.91-9.69,36.19-14.81,55.74-14.81h54.49c1.29,0,2.34,1.07,2.34,2.38s-1.05,2.39-2.34,2.39h-54.49c-59.63,0-108.14,48.7-108.14,108.55v39.83c0,15.88,6.65,30.74,18.35,41.31.34,2.59.92,5.1,1.72,7.5-14.99-11-24.76-28.77-24.76-48.81v-39.83c0-25.51,8.28-49.62,23.93-69.72,2.66-3.41,2.05-8.34-1.37-11-3.42-2.66-8.34-2.05-11,1.37C9.42,352.69,0,380.13,0,409.16v39.83c0,41.96,34.01,76.09,75.81,76.09h78.88v12.39c0,6.19,5.04,11.23,11.23,11.23h63.4c6.19,0,11.23-5.04,11.23-11.23v-4.99c0-2.55-.33-5.03-.94-7.39h11.18c4.33,0,7.84-3.51,7.84-7.84s-3.51-7.84-7.84-7.84h-21.41c-5.02-3.99-11.37-6.38-18.27-6.38h-3.6v-9.87c0-24.79-15.63-47.04-38.9-55.38l-40.55-14.51c-4.07-1.46-8.56.66-10.02,4.74-1.46,4.08.66,8.56,4.74,10.02l40.55,14.51c17.06,6.11,28.51,22.44,28.51,40.63v9.87h-25.12c-4.59,0-8.58,2.59-10.6,6.38h-77.77c-13.06,0-23.72-10.24-24.27-23.32-.08-1.92.06-3.84.42-5.72,7.34-38.48,26.22-71.05,54.6-94.19,28.95-23.6,66.33-36.08,108.08-36.08,15.72,0,31.14,1.94,45.85,5.77,4.19,1.09,8.47-1.42,9.56-5.61,1.09-4.19-1.42-8.47-5.61-9.56ZM170.36,518.7h29.2s.07,0,.1,0,.07,0,.1,0h11.34c7.59,0,13.77,6.18,13.77,13.77v.55h-54.5v-14.32h0Z" style="fill: #6f84de;"/>
    <path d="M511.38,497.28s0,0,0,0c-.84-2.44-2.49-4.57-4.8-6.01l-42.42-26.66s-.04-.02-.06-.03l-31.19-19.6c-8.05-11.9-19.52-21.14-32.78-26.49-2.09-11.65-9.73-23.89-18.88-30.05-5.77-3.89-11.86-5.21-17.62-3.83-2.66.64-6.17,2.27-8.99,6.33-10.36-10.21-24.7-22.1-43.02-32.3-3.78-2.11-8.55-.75-10.66,3.04-2.1,3.78-.75,8.55,3.03,10.66,20.99,11.68,36.29,25.79,45.95,36.3-.3,9.87,1.81,20.13,3.93,24.85,4.2,9.34,12.75,14.84,22.13,14.84,2.32,0,4.68-.33,7.05-1.03,6.89-2.03,12.15-6.61,15.05-12.55,9.17,4.53,17.02,11.5,22.6,20.2.62.97,1.45,1.79,2.43,2.41l26.03,16.36c-5.84,10.6-7.96,21.67-6.23,32.69-9.55,2-19.35,3.01-29.16,3.01h-19.88c-4.9-3.98-11.14-6.38-17.93-6.38h-9.25c-4.48-15.35-16.02-27.77-31.3-33.25l-46.11-16.51c-4.07-1.46-8.56.66-10.02,4.74-1.46,4.08.66,8.56,4.74,10.02l46.11,16.51c9.02,3.23,16.13,9.97,19.93,18.49h-13.29c-4.59,0-8.58,2.59-10.61,6.38h-27.33c-4.33,0-7.84,3.51-7.84,7.84s3.51,7.84,7.84,7.84h25.91v12.54c0,6.11,4.97,11.08,11.08,11.08h57.53c6.11,0,11.08-4.97,11.08-11.08v-6.12c0-2.21-.26-4.36-.74-6.42h10.08c11.08,0,22.16-1.16,32.94-3.46l7.12-1.17s0,0,.02,0l48.46-7.98c1.18-.19,2.3-.56,3.32-1.07,0,0,.02,0,.03-.01.19-.09.36-.2.54-.3.07-.04.15-.08.22-.12.11-.07.21-.14.32-.21.14-.09.27-.17.4-.26.04-.03.08-.06.12-.09,1.58-1.15,2.85-2.7,3.68-4.51.36-.8.64-1.65.82-2.54.42-2.09.27-4.17-.39-6.07ZM378.63,432.25c-3.46,1.02-8.03.19-10.46-5.21-2.09-4.64-2.96-13.51-2.5-19.98.06-.37.09-.74.1-1.12.29-2.9.88-5.18,1.77-6.16,1.67-.26,3.6.73,4.95,1.64,5.77,3.89,11.18,12.86,12.33,20.43.92,6.06-2.59,9.34-6.19,10.4ZM388.76,533.02h-48.34v-14.32h19.86s.09,0,.14,0c.03,0,.05,0,.08,0h15.46c7.06,0,12.8,5.74,12.8,12.8v1.52h0ZM458.4,503.82c-1.1-7.28.25-14.56,4.05-21.77l26.61,16.72-30.66,5.05Z" style="fill: #6f84de;"/>
    <circle cx="402.96" cy="455.9" r="6.36" style="fill: #6f84de;"/>
  </g>
  <g>
    <path d="M493.14,76.6c-12.31,0-22.33,7.65-22.33,17.06s10.02,17.06,22.33,17.06,22.33-7.65,22.33-17.06-10.02-17.06-22.33-17.06ZM493.14,98.76c-5.2,0-9.09-2.7-9.09-5.1s3.89-5.1,9.09-5.1,9.09,2.69,9.09,5.1-3.73,5.1-9.09,5.1Z" style="fill: #dea96f;"/>
    <path d="M1044.04,311.02c-.03-1.43-.14-2.84-.39-4.23-6.8-36.84-51.34-182.88-145.01-224.27-80.79-35.7-140.67-17.66-176.45-6.89-6.36,1.92-11.86,3.57-16.66,4.7-25.19,5.94-32.93-1.69-36.65-5.35-.6-.59-1.48-1.72-2.51-3.02-.94-1.19-2.03-2.58-3.31-4.09.25-2.73.26-5.36.01-7.82-.87-8.59-4.64-15.81-10.69-21.03,1.79-4.49,2.42-10.26,1.42-15.59-1.2-6.42-5.18-15.22-17.28-20.71-22.7-10.19-51.76,10.23-63.38,25.72-25.13-2.19-50.55-.68-66.34,2.38-13.57,2.63-46.04,12.79-78.97,24.71-60.52,21.91-62,27.29-62.89,30.5-5.77,20.82,35.97,41.38,36.39,41.59,5.08,2.47,12.49,4.82,20.12,6.87-6.48,4.5-9.95,8.64-9.44,13.34.23,2.12,1.56,5.99,7.85,8.05,3.68,1.21,9.45,2.92,16.49,5,23.38,6.92,85.48,25.3,92.25,36.31,10.32,16.78,49.75,73.59,77.39,102.11.95.98,1.95,1.89,2.93,2.83,4.58,18.09-4.42,50.06-6.04,55.53-3.13,1.47-12.71,4.16-28.77,5.33-9.27.68-15.85,3.63-19.55,8.79-5.11,7.11-2.21,15.11-1.87,16l1.52,3.89,4.57.1c.66.01,7.18.15,16.12.15,14.03,0,34.05-.33,46.83-1.98,10.04-1.3,18.03-8.05,24.05-15.75-1.64,9.67-4.04,19.03-5.59,24.25-3.13,1.47-12.71,4.16-28.77,5.33-9.27.68-15.85,3.63-19.55,8.79-5.11,7.11-2.21,15.11-1.87,16l1.52,3.89,4.57.1c.66.01,7.16.15,16.09.15,14.03,0,34.07-.33,46.86-1.98,22.66-2.92,32.97-22.35,34.47-25.44,2.18-3.54,19.64-32.35,27.61-60.75,10.57,2.39,32.09,7.18,53.24,11.52.05.06.1.12.16.18-17.38,1.59-28.95,6.25-34.27,13.95-5.38,7.79-2.25,15.27-1.87,16.1l1.81,3.99,4.77-.29c.36-.02,35.5-2.19,72.39-5.2,10,4.22,19.33,6.91,26.76,8.61-9.37,4.29-24.17,9.09-45.06,10.37-19.62,1.21-32.46,6.02-38.17,14.3-5.38,7.8-2.25,15.27-1.87,16.1l1.82,4.02,4.8-.32c4.34-.29,106.63-7.16,129.27-10.71,19.15-3.01,22.5-11.99,24.95-18.56.95-2.54,1.76-4.74,3.41-6.41,1.02-1.04,2.28-2.05,3.6-3.12,5.27-4.25,9.63-8.7,10.08-15.53.04,0,.08,0,.12,0,29.39,0,61.32-14.6,82-31.56,29.82,10.19,59.07,46.25,55.24,82.35-4.7,44.25-38.56,90.16-119.59,86.27-31.48-1.51-52.34-10.35-72.51-18.9-27.26-11.55-53-22.45-99.07-14.21-62.08,11.1-82.42,55.31-82.18,73.78.11,8.21,4.66,10.15,7.37,10.57.5.08.98.11,1.44.11,7.21,0,10.84-8.84,12.44-12.75,13.55-33.04,53.4-48.3,94.75-36.24,8.85,2.58,19.2,6.25,31.18,10.5,49.52,17.57,117.35,41.64,175.41,22.64,54.85-17.94,113.54-66.98,98.43-146.13-13-68.17-62.26-92.75-77.93-98.94h0ZM630.59,13.44c5.31,2.41,8.64,6.08,9.89,10.91.78,2.99.62,5.88.18,8.11-.08-.03-.15-.07-.23-.09-10.9-3.59-21.06-1.76-30.04,2.74-6.91-2.06-14.34-3.63-21.99-4.82,10.41-10.54,29.32-22.61,42.18-16.84ZM619.85,378.11c-15.3,1.97-42.88,1.93-54.9,1.8.13-.56.35-1.12.71-1.62,1.31-1.83,4.69-3.03,9.51-3.38,7.6-.56,32.88-2.94,38.84-10.24.94-1.15,1.49-2.45,1.62-3.76,1.37-4.54,7.54-26.15,7.78-45.55,10.19,9.13,19.25,18.35,22.87,31.29-3.49,9.16-13.84,29.84-26.42,31.46ZM750.86,377.63c.16-.36.36-.74.62-1.12,1.88-2.72,7.99-7.47,27.84-8.69,2.9-.18,5.34-.51,7.22-.82,3.51,2.7,7.08,5.13,10.66,7.36-19.78,1.5-37.19,2.66-46.34,3.26ZM934.39,371.49c-1.78-4.18-4.52-8.98-8.56-14.64-1.98-2.77-6.08-3.58-9.15-1.78-3.07,1.79-3.96,5.49-1.97,8.26,4.45,6.23,6.95,10.73,8.12,14.15.04.77.25,1.49.59,2.17,1.03,5.28-1.8,7.61-5.38,10.5-1.54,1.25-3.14,2.54-4.67,4.09-3.44,3.5-4.84,7.24-6.07,10.55-2.04,5.49-3.28,8.8-14.66,10.59-18.71,2.94-97.29,8.46-121.12,10.1.18-.4.41-.82.71-1.23,1.94-2.67,8.13-7.33,27.73-8.54,45.16-2.78,65.26-20.49,66.09-21.24l10-9.04-14.1-1.14c-.43-.03-43.22-3.82-74.39-32.79-8.95-8.32-12.03-16.35-9.43-24.57,3.85-12.17,19.21-21.06,22.94-22.05,3.38-.27,6.04-2.83,6.04-5.95,0-3.3-2.96-5.98-6.62-5.98-7.01,0-26.42,11.52-33.5,26.64-2.73,5.82-4.39,13.59-1.36,22.4-17.27-3.64-33.36-7.23-41.79-9.14,1.28-7.27,1.67-14.27.73-20.54-.49-3.27-3.84-5.57-7.45-5.12-3.63.44-6.17,3.45-5.67,6.72.92,6.11.26,13.22-1.34,20.67-.2.37-.37.76-.49,1.18-.16.57-.19,1.14-.17,1.7-7.09,28.96-27.38,61.85-27.65,62.27l-.36.67c-.08.16-7.59,16.36-24.26,18.51-15.3,1.98-42.88,1.92-54.91,1.8.13-.56.35-1.12.71-1.62,1.31-1.83,4.69-3.03,9.52-3.38,7.6-.56,32.88-2.94,38.83-10.24.95-1.16,1.5-2.46,1.62-3.79,1.67-5.69,10.96-38.65,6.72-56.15-.03-.11-.08-.22-.1-.33-.02-.07-.04-.14-.06-.21-4.71-18.61-17.97-30.37-30.82-41.73-4.31-3.81-8.77-7.75-12.72-11.82-27-27.86-65.65-83.57-75.78-100.04-8.57-13.94-53.95-28.32-99.7-41.86-5.24-1.55-9.76-2.89-13.2-3.96,1.87-1.49,5.23-3.73,11.11-7,8.07,1.74,14.23,2.85,14.83,2.95,3.59.63,7.07-1.48,7.77-4.72s-1.64-6.38-5.23-7.02c-3.34-.59-8.84-1.66-15.03-3.01-1.01-.5-2.13-.75-3.28-.73-10.96-2.49-23.29-5.75-29.84-8.94-12.65-6.15-30.28-19.72-29.96-27.21,11.08-8.47,104.1-41.98,131.94-47.36,21.01-4.07,58.32-4.89,87.55,1.6-14.97,12.93-24.46,30.53-25.14,31.83-1.58,2.98-.18,6.55,3.12,7.97,2.05.88,4.35.73,6.18-.22,1.11-.58,2.06-1.46,2.65-2.59.25-.47,25.42-46.29,51.98-37.53,10.43,3.44,13.36,11.45,13.97,17.57,1.76,17.5-12.85,43.92-44.19,60.59-.01,0-.02.01-.04.02-3.15,1.67-4.2,5.34-2.35,8.19,1.24,1.89,3.44,2.95,5.71,2.95,1.14,0,2.3-.27,3.35-.83,25.3-13.44,40.33-31.9,46.91-48.83,4.72,4.65,17.05,16.36,49.59,8.68,5.23-1.23,10.92-2.94,17.51-4.93,36.05-10.86,90.52-27.26,166.44,6.29,87.71,38.76,131.61,182.1,137.77,215.5,1.55,8.41-3.79,18.94-15.03,29.65-18.2,17.33-52.11,34.18-81.16,33.08h0ZM1019.04,544.87c-53.36,17.46-118.5-5.65-166.06-22.53-12.19-4.33-22.72-8.06-31.96-10.75-33.23-9.67-65.73-4.07-88.02,13.15,10.53-10.49,27.06-20.92,52.7-25.51,41.81-7.48,64.54,2.16,90.87,13.31,20.33,8.61,43.37,18.38,77.43,20.01,90.45,4.27,128.43-49.58,133.47-97.07,4.3-40.45-25.95-78.79-58.57-92.68,6.09-6.51,10.39-13.1,12.8-19.51,15.93,7.14,56.12,30.56,67.22,88.73,13.72,71.87-39.85,116.49-89.89,132.86h0Z" style="fill: #dea96f;"/>
  </g>
</svg>