<svg xmlns="http://www.w3.org/2000/svg" version="1.1" xmlns:xlink="http://www.w3.org/1999/xlink" width="512" height="512" x="0" y="0" viewBox="0 0 300 300" style="enable-background:new 0 0 512 512" xml:space="preserve" class=""><g><g fill="#333"><path d="M62.978 69.686c-4.265 0-7.735 2.936-7.735 6.544s3.47 6.544 7.735 6.544 7.734-2.936 7.734-6.544-3.47-6.544-7.734-6.544zm0 8.502c-1.802 0-3.149-1.034-3.149-1.958s1.347-1.958 3.149-1.958c1.855 0 3.148 1.032 3.148 1.958s-1.293 1.958-3.148 1.958z" fill="#6f84de" opacity="1" data-original="#333333" class=""></path><path d="M253.786 159.606a11.147 11.147 0 0 0-.136-1.621c-2.355-14.132-17.783-70.149-50.227-86.025-27.982-13.694-48.722-6.775-61.114-2.643-2.204.735-4.108 1.37-5.77 1.804-8.725 2.278-11.405-.647-12.694-2.051-.209-.228-.514-.658-.869-1.157a53.599 53.599 0 0 0-1.148-1.569c.087-1.048.09-2.055.004-3-.3-3.295-1.607-6.066-3.701-8.068.62-1.724.838-3.937.491-5.979-.417-2.462-1.793-5.837-5.985-7.943-7.863-3.907-17.929 3.923-21.952 9.864-8.705-.84-17.508-.261-22.978.911-4.701 1.007-15.948 4.905-27.353 9.479-20.96 8.405-21.475 10.467-21.783 11.7-1.997 7.985 12.457 15.873 12.604 15.952 1.761.948 4.325 1.849 6.967 2.634-2.246 1.728-3.447 3.313-3.268 5.116.081.814.542 2.296 2.719 3.087 1.273.463 3.273 1.119 5.713 1.919 8.097 2.654 29.605 9.704 31.951 13.927 3.576 6.436 17.233 28.227 26.805 39.167.328.375.677.724 1.015 1.087 1.585 6.937-1.532 19.202-2.093 21.299-1.085.564-4.403 1.595-9.965 2.045-3.211.26-5.49 1.394-6.772 3.371-1.77 2.727-.767 5.797-.646 6.138l.526 1.493 1.583.037c.23.005 2.487.057 5.585.057 4.86 0 11.793-.128 16.219-.76 3.479-.497 6.244-3.088 8.329-6.041-.567 3.708-1.4 7.3-1.935 9.302-1.085.565-4.403 1.595-9.964 2.045-3.211.26-5.489 1.394-6.772 3.371-1.77 2.727-.767 5.797-.648 6.138l.526 1.494 1.583.037c.23.005 2.481.057 5.573.057 4.861 0 11.802-.127 16.231-.76 7.847-1.12 11.418-8.574 11.938-9.758.756-1.358 6.801-12.41 9.564-23.301 3.662.916 11.115 2.756 18.441 4.417l.055.07c-6.02.609-10.027 2.396-11.869 5.352-1.862 2.989-.778 5.857-.648 6.174l.626 1.532 1.651-.112c.124-.008 12.294-.839 25.072-1.996a52.555 52.555 0 0 0 9.27 3.304c-3.246 1.645-8.371 3.485-15.608 3.979-6.794.464-11.243 2.308-13.221 5.484-1.862 2.99-.779 5.858-.649 6.175l.631 1.541 1.661-.122c1.504-.112 36.932-2.746 44.775-4.109 6.634-1.154 7.794-4.601 8.641-7.118.328-.976.611-1.818 1.182-2.46.355-.4.788-.787 1.247-1.197 1.824-1.63 3.334-3.337 3.492-5.958l.043.002c10.18-.001 21.239-5.602 28.4-12.106 10.33 3.907 20.459 17.74 19.132 31.588-1.628 16.974-13.357 34.582-41.421 33.091-10.902-.579-18.127-3.969-25.113-7.248-9.44-4.429-18.357-8.612-34.313-5.452-21.501 4.259-28.548 21.217-28.462 28.299.038 3.151 1.615 3.893 2.552 4.055a2.9 2.9 0 0 0 .5.044c2.498-.001 3.753-3.391 4.309-4.892 4.694-12.675 18.496-18.525 32.817-13.902 3.064.988 6.649 2.397 10.8 4.028 17.153 6.74 40.644 15.971 60.754 8.685 18.999-6.883 39.327-25.693 34.092-56.053-4.504-26.148-21.564-35.575-26.992-37.95zM110.587 45.458c1.84.924 2.993 2.331 3.427 4.183.27 1.148.216 2.255.064 3.109-.028-.01-.052-.026-.081-.036-3.777-1.378-7.295-.674-10.405 1.051-2.392-.789-4.966-1.393-7.616-1.847 3.605-4.042 10.154-8.673 14.611-6.46zm-3.722 139.882c-5.298.757-14.852.739-19.016.69.044-.215.121-.428.246-.62.455-.701 1.625-1.162 3.295-1.297 2.634-.213 11.388-1.127 13.451-3.929a2.86 2.86 0 0 0 .56-1.444c.473-1.741 2.61-10.032 2.696-17.473 3.529 3.502 6.668 7.039 7.92 12.004-1.208 3.512-4.795 11.446-9.152 12.069zm45.379-.184c.055-.14.125-.284.215-.428.65-1.044 2.767-2.864 9.641-3.333a22.246 22.246 0 0 0 2.5-.313 44.844 44.844 0 0 0 3.693 2.825c-6.852.576-12.881 1.022-16.049 1.249zm63.564-2.355c-.617-1.605-1.564-3.445-2.965-5.616a2.293 2.293 0 1 0-3.854 2.486c1.543 2.391 2.407 4.114 2.811 5.429.015.294.086.573.203.831.356 2.025-.623 2.919-1.862 4.027-.535.478-1.088.973-1.619 1.57-1.192 1.341-1.675 2.778-2.102 4.045-.708 2.105-1.136 3.376-5.079 4.062-6.479 1.126-33.698 3.246-41.951 3.874a2.59 2.59 0 0 1 .247-.473c.673-1.025 2.816-2.813 9.603-3.276 15.642-1.067 22.603-7.86 22.891-8.149l3.464-3.467-4.883-.439c-.149-.013-14.969-1.464-25.765-12.577-3.099-3.19-4.168-6.273-3.267-9.425 1.335-4.67 6.655-8.079 7.945-8.459a2.294 2.294 0 0 0-.201-4.577c-2.429 0-9.15 4.417-11.602 10.217-.944 2.233-1.522 5.213-.472 8.594a983.014 983.014 0 0 1-14.474-3.506c.442-2.789.577-5.474.253-7.877a2.294 2.294 0 0 0-4.544.614c.317 2.345.091 5.071-.465 7.928-.07.142-.128.293-.169.453a2.266 2.266 0 0 0-.059.652c-2.456 11.109-9.485 23.723-9.577 23.886l-.123.256c-.026.063-2.63 6.276-8.404 7.1-5.298.758-14.853.738-19.017.691.045-.215.122-.428.246-.62.455-.701 1.626-1.162 3.296-1.297 2.634-.213 11.387-1.127 13.45-3.929.328-.446.518-.944.561-1.454.58-2.182 3.795-14.824 2.328-21.538-.01-.044-.026-.083-.036-.127-.007-.026-.013-.053-.022-.079-1.63-7.137-6.223-11.649-10.676-16.005-1.492-1.461-3.036-2.971-4.404-4.535-9.35-10.685-22.738-32.055-26.248-38.374-2.969-5.346-18.687-10.864-34.531-16.058-1.815-.595-3.381-1.108-4.573-1.518.648-.571 1.811-1.429 3.849-2.686a140.31 140.31 0 0 0 5.137 1.133 2.294 2.294 0 0 0 .881-4.501 128.76 128.76 0 0 1-5.207-1.156 2.293 2.293 0 0 0-1.137-.281c-3.797-.954-8.065-2.206-10.335-3.428-4.38-2.359-10.487-7.566-10.378-10.439 3.836-3.249 36.056-16.102 45.699-18.168 7.277-1.562 20.199-1.874 30.325.614-5.184 4.958-8.471 11.712-8.709 12.208a2.293 2.293 0 0 0 4.137 1.98c.086-.179 8.805-17.755 18.003-14.394 3.613 1.319 4.626 4.392 4.839 6.738.611 6.712-4.45 16.848-15.306 23.239l-.013.008a2.295 2.295 0 0 0 1.165 4.27c.395 0 .795-.102 1.161-.317 8.763-5.155 13.969-12.238 16.248-18.731 1.636 1.783 5.904 6.274 17.177 3.328 1.81-.473 3.781-1.129 6.063-1.891 12.485-4.165 31.351-10.456 57.647 2.412 30.379 14.868 45.584 69.848 47.719 82.66.537 3.226-1.312 7.265-5.207 11.374-6.303 6.647-18.049 13.111-28.112 12.688zm29.321 66.501c-18.481 6.698-41.042-2.169-57.515-8.642-4.223-1.659-7.869-3.093-11.07-4.125-11.511-3.711-22.765-1.56-30.488 5.043 3.648-4.024 9.374-8.025 18.254-9.784 14.481-2.869 22.355.827 31.473 5.106 7.042 3.304 15.022 7.049 26.818 7.675 31.329 1.637 44.483-19.018 46.23-37.234 1.488-15.516-8.988-30.221-20.285-35.55 2.11-2.498 3.597-5.026 4.435-7.485 5.517 2.738 19.436 11.723 23.283 34.033 4.752 27.568-13.802 44.683-31.135 50.963z" fill="#6f84de" opacity="1" data-original="#333333" class=""></path></g></g></svg>