<?xml version="1.0" encoding="UTF-8"?>
<svg id="Layer_1" data-name="Layer 1" xmlns="http://www.w3.org/2000/svg" viewBox="0 0 1108 680">
  <g>
    <g>
      <path d="M435.39,465.41c-5.86,0-11.71-2.22-16.17-6.67l-182.63-182.64c-8.93-8.93-8.93-23.45,0-32.37l21.73-21.72c8.94-8.91,23.45-8.94,32.37,0l182.62,182.62c8.93,8.93,8.93,23.43,0,32.36l-21.72,21.74c-4.47,4.46-10.33,6.68-16.19,6.68ZM274.51,234.93c-.84,0-1.68.32-2.32.96l-21.73,21.72c-1.28,1.28-1.28,3.36,0,4.64l182.62,182.62c1.28,1.28,3.35,1.26,4.65-.01l21.71-21.72c1.28-1.28,1.28-3.35,0-4.62l-182.62-182.62c-.64-.64-1.48-.96-2.31-.96h0Z" style="fill: #6f84de;"/>
      <path d="M184,616.27c-6.11,0-11.86-2.38-16.18-6.7l-82.07-82.06c-8.92-8.93-8.92-23.43,0-32.36l21.74-21.74c8.63-8.62,23.71-8.66,32.36,0l82.07,82.07c4.32,4.3,6.7,10.05,6.7,16.15,0,6.13-2.38,11.88-6.7,16.2l-21.74,21.72c-4.32,4.32-10.06,6.7-16.18,6.7h0ZM123.67,486.32c-.5,0-1.48.13-2.31.96l-21.74,21.74c-1.27,1.28-1.27,3.35,0,4.62l82.07,82.06c1.67,1.66,2.96,1.66,4.62,0l21.74-21.72c.84-.83.96-1.81.96-2.32s-.12-1.47-.95-2.29l-82.07-82.09c-.84-.83-1.81-.96-2.31-.96h0Z" style="fill: #6f84de;"/>
      <path d="M217.53,574.76c-2.53,0-5.05-.98-6.94-2.87l-87.15-87.15c-3.23-3.23-3.81-8.28-1.37-12.14l124.02-197.77c1.58-2.53,4.24-4.2,7.2-4.53,2.99-.34,5.92.69,8.04,2.81l160.9,160.9c2.11,2.11,3.14,5.07,2.81,8.03-.33,2.98-2,5.62-4.53,7.21l-197.77,124.02c-1.6,1.01-3.41,1.49-5.2,1.49h0ZM142.83,476.4l76.1,76.1,180.72-113.33-143.48-143.48-113.33,180.72Z" style="fill: #6f84de;"/>
      <path d="M298.17,616.43c-10.22,0-19.82-3.98-27.05-11.21l-43.81-43.81c-3.83-3.83-3.83-10.04,0-13.87s10.04-3.83,13.87,0l43.81,43.81c7.04,7.04,19.29,7.06,26.35,0l56.8-56.8c7.27-7.27,7.27-19.09,0-26.36l-21.58-21.57c-3.83-3.83-3.83-10.04,0-13.87s10.02-3.84,13.87,0l21.58,21.57c14.92,14.92,14.92,39.18,0,54.09l-56.8,56.8c-7.21,7.23-16.82,11.21-27.03,11.21h0Z" style="fill: #6f84de;"/>
      <path d="M373.34,263.23c-1.1,0-2.22-.18-3.32-.57-5.1-1.84-7.74-7.46-5.91-12.55l9.63-26.75c1.84-5.1,7.41-7.78,12.55-5.91,5.1,1.84,7.74,7.46,5.91,12.55l-9.63,26.75c-1.44,4-5.21,6.49-9.23,6.49h0Z" style="fill: #6f84de;"/>
      <path d="M441.9,331.79c-4.02,0-7.79-2.49-9.23-6.49-1.83-5.1.82-10.71,5.91-12.55l26.75-9.63c5.1-1.85,10.71.82,12.55,5.91,1.83,5.1-.82,10.71-5.91,12.55l-26.75,9.63c-1.1.4-2.22.57-3.32.57h0Z" style="fill: #6f84de;"/>
    </g>
    <path d="M434.81,283.11c-2.52,0-5.02-.96-6.93-2.87-3.83-3.83-3.83-10.04,0-13.87l20.11-20.11c3.83-3.83,10.04-3.83,13.87,0,3.83,3.83,3.83,10.04,0,13.87l-20.11,20.11c-1.92,1.92-4.42,2.87-6.93,2.87Z" style="fill: #6f84de;"/>
  </g>
  <g>
    <path d="M776,370h-101c-5.52,0-10,4.48-10,10s4.48,10,10,10h101c5.52,0,10-4.48,10-10s-4.48-10-10-10Z" style="fill: #dea96f;"/>
    <path d="M927,370h-101c-5.52,0-10,4.48-10,10s4.48,10,10,10h101c5.52,0,10-4.48,10-10s-4.48-10-10-10Z" style="fill: #dea96f;"/>
    <path d="M927,120h-252c-5.52,0-10,4.48-10,10s4.48,10,10,10h252c5.52,0,10-4.48,10-10s-4.48-10-10-10Z" style="fill: #dea96f;"/>
    <path d="M927,170h-101c-5.52,0-10,4.48-10,10s4.48,10,10,10h101c5.52,0,10-4.48,10-10s-4.48-10-10-10Z" style="fill: #dea96f;"/>
    <path d="M927,220h-101c-5.52,0-10,4.48-10,10s4.48,10,10,10h101c5.52,0,10-4.48,10-10s-4.48-10-10-10Z" style="fill: #dea96f;"/>
    <path d="M927,270h-101c-5.52,0-10,4.48-10,10s4.48,10,10,10h101c5.52,0,10-4.48,10-10s-4.48-10-10-10Z" style="fill: #dea96f;"/>
    <path d="M927,320h-101c-5.52,0-10,4.48-10,10s4.48,10,10,10h101c5.52,0,10-4.48,10-10s-4.48-10-10-10Z" style="fill: #dea96f;"/>
    <path d="M776,320h-101c-5.52,0-10,4.48-10,10s4.48,10,10,10h101c5.52,0,10-4.48,10-10s-4.48-10-10-10Z" style="fill: #dea96f;"/>
    <path d="M776,170h-101c-5.52,0-10,4.48-10,10v101c0,5.52,4.48,10,10,10h101c5.52,0,10-4.48,10-10v-101c0-5.52-4.48-10-10-10ZM766,271h-81v-81h81v81Z" style="fill: #dea96f;"/>
    <path d="M1027,110h-30v-30c0-11.03-8.97-20-20-20h-352c-11.03,0-20,8.97-20,20v320c0,27.57,22.43,50,50,50h342c27.57,0,50-22.43,50-50V130c0-11.03-8.97-20-20-20ZM1027,400c0,16.54-13.46,30-30,30h-342c-16.54,0-30-13.46-30-30V80h352v305c0,13.79,11.21,25,25,25,5.52,0,10-4.48,10-10s-4.48-10-10-10c-2.76,0-5-2.24-5-5v-255h30v270Z" style="fill: #dea96f;"/>
  </g>
</svg>