<svg xmlns="http://www.w3.org/2000/svg" version="1.1" xmlns:xlink="http://www.w3.org/1999/xlink" width="512" height="512" x="0" y="0" viewBox="0 0 32 32" style="enable-background:new 0 0 512 512" xml:space="preserve" fill-rule="evenodd" class=""><g><path d="M21.198 21.087a5.01 5.01 0 0 1-3.538 1.466 4.991 4.991 0 0 1-3.535-1.463l-4.949-4.95a1 1 0 0 1 1.416-1.414l4.948 4.95a3.001 3.001 0 0 0 4.244-.003l.707.706-.708-.707a3.001 3.001 0 0 0 .002-4.243l-4.948-4.948a1 1 0 1 1 1.415-1.415s2.602 2.6 4.949 4.948a4.991 4.991 0 0 1 1.463 3.535 5.01 5.01 0 0 1-1.466 3.538z" fill="#a2572c" opacity="1" data-original="#000000" class=""></path><path d="M19.807 19.695a5.01 5.01 0 0 1 3.538-1.466c1.326-.001 2.598.525 3.535 1.463l4.95 4.948c.389.391.389 1.025-.001 1.416s-1.025.39-1.415 0l-4.95-4.948a3.001 3.001 0 0 0-5.123 2.125c0 .795.315 1.558.879 2.12l4.948 4.948a1 1 0 1 1-1.415 1.415l-4.949-4.948a4.991 4.991 0 0 1-1.463-3.535 5.01 5.01 0 0 1 1.466-3.538zM12.585 18.396l5.656-5.656a1 1 0 0 0-1.414-1.414l-5.656 5.656a1 1 0 0 0 1.414 1.414z" fill="#a2572c" opacity="1" data-original="#000000" class=""></path><path d="m23.912 29.722 5.656-5.656a1 1 0 0 0-1.414-1.414l-5.656 5.656a1 1 0 0 0 1.414 1.414zM15.666 20.972l5.344-5.344a1 1 0 1 0-1.414-1.414l-5.344 5.344a1 1 0 1 0 1.414 1.414zM21.336 26.642l5.344-5.344a1 1 0 1 0-1.414-1.414l-5.344 5.344a1 1 0 1 0 1.414 1.414z" fill="#a2572c" opacity="1" data-original="#000000" class=""></path><path d="M14.586 2H3a1 1 0 0 0-1 1v26a.997.997 0 0 0 1 1h16a.997.997 0 0 0 1-1v-2.5a1 1 0 0 1 2 0V29c0 .796-.316 1.559-.879 2.121A2.996 2.996 0 0 1 19 32H3a2.996 2.996 0 0 1-2.121-.879A2.996 2.996 0 0 1 0 29V3a3 3 0 0 1 3-3h12c.265 0 .52.105.707.293l6 6A.997.997 0 0 1 22 7v8.5a1 1 0 0 1-2 0V7.414z" fill="#a2572c" opacity="1" data-original="#000000" class=""></path><path d="M21 8a1.002 1.002 0 0 0 .707-1.707l-6-6A1 1 0 0 0 14 1v4a3 3 0 0 0 3 3zm-5-4.586V5a1 1 0 0 0 1 1h1.586zM5 8h3a1 1 0 0 0 0-2H5a1 1 0 0 0 0 2zM11 10H5a1 1 0 0 0 0 2h6a1 1 0 0 0 0-2zM11.98 8h.999a1 1 0 0 0 0-2h-.999a1 1 0 0 0 0 2z" fill="#a2572c" opacity="1" data-original="#000000" class=""></path></g></svg>