<svg id="fi_10111397" height="512" viewBox="0 0 32 32" width="512" xmlns="http://www.w3.org/2000/svg" xmlns:xlink="http://www.w3.org/1999/xlink"><linearGradient id="linear-gradient" gradientUnits="userSpaceOnUse" x1="10.201" x2="26.002" y1="30.044" y2="2.676"><stop offset="0" stop-color="#3cacb6"></stop><stop offset="1" stop-color="#8ccead"></stop></linearGradient><path d="m29.828 6.414-3.242-3.242c-.756-.756-1.761-1.172-2.829-1.172h-9.757c-1.654 0-3 1.346-3 3v5h-7c-1.654 0-3 1.346-3 3v10c0 1.654 1.346 3 3 3h7v1c0 1.654 1.346 3 3 3h14c1.654 0 3-1.346 3-3v-17.758c0-1.054-.427-2.084-1.172-2.828zm-3.828-1 1.586 1.586h-1.586zm-22 18.586c-.551 0-1-.448-1-1v-10c0-.552.449-1 1-1h18c.551 0 1 .448 1 1v10c0 .552-.449 1-1 1zm25 3c0 .552-.449 1-1 1h-14c-.551 0-1-.448-1-1v-1h9c1.654 0 3-1.346 3-3v-10c0-1.654-1.346-3-3-3h-9v-5c0-.552.449-1 1-1h9.757c.082 0 .162.014.243.024v3.976c0 .553.448 1 1 1h3.976c.01.081.024.161.024.242zm-16-13h-1c-.552 0-1 .447-1 1v6c0 .553.448 1 1 1h1c1.654 0 3-1.346 3-3v-2c0-1.654-1.346-3-3-3zm1 5c0 .552-.449 1-1 1v-4c.551 0 1 .448 1 1zm-6-5h-2c-.552 0-1 .447-1 1v6c0 .553.448 1 1 1s1-.447 1-1v-1h1c1.103 0 2-.897 2-2v-2c0-1.103-.897-2-2-2zm-1 4v-2h1v2s-1 0-1 0zm12-2v1h1c.552 0 1 .447 1 1s-.448 1-1 1h-1v2c0 .553-.448 1-1 1s-1-.447-1-1v-6c0-.553.448-1 1-1h2c.552 0 1 .447 1 1s-.448 1-1 1z" fill="url(#linear-gradient)"></path></svg>