<?xml version="1.0" encoding="UTF-8"?>
<svg id="Layer_1" data-name="Layer 1" xmlns="http://www.w3.org/2000/svg" viewBox="0 0 1108 680">
  <g>
    <path d="M586.15,599.9h28.44c2.21,0,4-1.79,4-4s-1.79-4-4-4h-28.44c-2.21,0-4,1.79-4,4s1.79,4,4,4Z" style="fill: #dea96f;"/>
    <g>
      <path d="M444.35,390.54c16.23.8,28.75,14.57,28,30.8-.1,2.21,1.61,4.08,3.82,4.18s4.08-1.61,4.18-3.82c.97-20.66-14.98-38.19-35.64-39.16-20.66-.97-38.19,14.98-39.16,35.64h0c-.95,20.65,14.99,38.17,35.64,39.16h.2c2.21,0,4-1.79,4-4s-1.79-4-4-4c-16.25-.39-29.11-13.89-28.72-30.14.39-16.25,13.89-29.11,30.14-28.72.45.01.89.03,1.34.06h.2Z" style="fill: #dea96f;"/>
      <path d="M405.75,555.14c0,2.21,1.79,4,4,4h53.6c2.21,0,4-1.79,4-4s-1.79-4-4-4h-53.6c-2.21,0-4,1.79-4,4Z" style="fill: #dea96f;"/>
      <path d="M490.47,527.82c.24,2.02,1.97,3.53,4,3.52h.48l25.04-3.04c2.19-.25,3.77-2.23,3.52-4.43,0,0,0,0,0-.01-.27-2.19-2.26-3.75-4.46-3.48,0,0-.01,0-.02,0l-25.04,3c-2.19.25-3.77,2.23-3.52,4.43,0,0,0,0,0,.01h0Z" style="fill: #dea96f;"/>
      <path d="M503.63,571.66c1.85,1.2,4.31.68,5.52-1.16l7.44-11.56h66.2c10.25.03,18.59-8.25,18.62-18.5,0-1.72-.23-3.44-.7-5.1-5.06-18.34-12.34-35.99-21.68-52.56l20.36-6.76c2.1-.71,3.23-2.98,2.52-5.08-.71-2.1-2.98-3.23-5.08-2.52l-22.04,7.36c-1.64-2.6-3.36-5.12-5.08-7.6l22.76-31.56c1.28-1.8.86-4.3-.94-5.58-1.8-1.28-4.3-.86-5.58.94l-21.24,29.72c-13.54-17.26-30.74-31.29-50.36-41.08.41-39.43-31.23-71.73-70.66-72.13-18.04-.19-35.48,6.46-48.82,18.61l-.8.8h-96.64c-64.73.09-117.17,52.55-117.24,117.28v6.28c-12.53-5.72-22.93-15.25-29.72-27.24-14.48-25.24-14.28-60.32.68-104.2,22.64-66.52,18.04-131.16,10.2-173.72-.41-2.21-2.53-3.67-4.74-3.26-2.21.41-3.67,2.53-3.26,4.74,7.8,41.56,12.32,104.84-9.8,169.68-15.36,45.2-15.68,81.92-.92,109.12,8.12,15.31,21.46,27.21,37.6,33.52l.88.28c3.48,21.71,16.98,40.52,36.44,50.76h-68c-2.21,0-4,1.79-4,4s1.79,4,4,4h227.16c15.57,0,28.2-12.63,28.2-28.2s-12.63-28.2-28.2-28.2h-32.48c2.09-10.3,1.71-20.95-1.12-31.08-8.13-29.8-34.69-50.87-65.56-52-9.9-.23-19.73,1.67-28.84,5.56-2.04.87-2.99,3.24-2.12,5.28s3.24,2.99,5.28,2.12c8.06-3.39,16.74-5.03,25.48-4.8,27.32,1.03,50.82,19.64,58.08,46,2.92,10.47,2.92,21.53,0,32-.58,2.13.69,4.33,2.82,4.9.38.1.78.15,1.18.14h37.28c11.16,0,20.21,9.03,20.21,20.19s-9.03,20.21-20.19,20.21h-126.59c-34.11.11-61.85-27.45-61.96-61.56,0-.08,0-.16,0-.24v-4.28c.04-60.32,48.92-109.21,109.24-109.28h89.36c-24.34,31.05-18.91,75.95,12.14,100.3,11.67,9.15,25.89,14.44,40.7,15.14,2.21,0,4-1.79,4-4s-1.79-4-4-4c-35.01-1.82-61.92-31.68-60.1-66.69,1.82-35.01,31.68-61.92,66.69-60.1,34.77,1.81,61.59,31.28,60.13,66.07-.17,1.66.7,3.26,2.2,4,20.93,9.93,39.08,24.88,52.84,43.52.15.24.31.46.48.68,2.8,3.76,5.52,7.72,8,12l.24.36c8.24,13.81,14.88,28.52,19.8,43.84-10.52,3.03-17.79,12.61-17.88,23.56v.56h-50.4l9.56-14.8c1.19-1.86.65-4.33-1.2-5.52-1.85-1.2-4.31-.68-5.52,1.16l-12,18.6c-13.5-1.67-26.18-7.38-36.36-16.4l-5.68-5.08c-1.66-1.47-4.19-1.32-5.66.34s-1.32,4.19.34,5.66l5.68,5.04c10.4,9.25,23.17,15.43,36.88,17.84l-5.28,8c-1.24,1.83-.77,4.31,1.05,5.56.06.04.13.08.19.12h0ZM580.03,550.58c0-7.48,5.02-14.03,12.24-16,.32,1.04.64,2,.92,3.08.92,3.15.28,6.55-1.72,9.16-1.98,2.69-5.14,4.27-8.48,4.24h-2.92s-.04-.28-.04-.48h0Z" style="fill: #dea96f;"/>
      <path d="M532.23,475.5c0-9.87-8.01-17.88-17.88-17.88-9.87,0-17.88,8.01-17.88,17.88s8.01,17.88,17.88,17.88c.01,0,.03,0,.04,0,9.86-.02,17.84-8.02,17.84-17.88ZM504.51,475.5c0-5.46,4.42-9.88,9.88-9.88s9.88,4.42,9.88,9.88-4.42,9.88-9.88,9.88c-5.38-.11-9.68-4.5-9.68-9.88h-.2Z" style="fill: #dea96f;"/>
      <path d="M204.03,480.82c-2.21,0-4,1.79-4,4-.07,14.98,5.95,29.34,16.68,39.8,1.56,1.55,4.08,1.55,5.64,0,1.57-1.56,1.58-4.09.02-5.66,0,0-.02-.02-.02-.02-9.19-8.92-14.36-21.19-14.32-34,.07-2.21-1.67-4.05-3.88-4.12-.04,0-.08,0-.12,0Z" style="fill: #dea96f;"/>
      <path d="M235.55,532.62c-.71,2.09.41,4.36,2.5,5.07,0,0,.01,0,.02,0,1.92.62,3.87,1.14,5.84,1.56.28.04.56.04.84,0,2.21.23,4.19-1.37,4.42-3.58.23-2.21-1.37-4.19-3.58-4.42-1.68-.36-3.36-.84-5-1.36-2.11-.66-4.35.52-5.01,2.62,0,.03-.02.06-.03.1Z" style="fill: #dea96f;"/>
      <path d="M122.71,599.9h344c2.21,0,4-1.79,4-4s-1.79-4-4-4H122.71c-2.21,0-4,1.79-4,4s1.79,4,4,4Z" style="fill: #dea96f;"/>
      <path d="M622.71,618.22h-257.64c-2.21,0-4,1.79-4,4s1.79,4,4,4h257.64c2.21,0,4-1.79,4-4s-1.79-4-4-4Z" style="fill: #dea96f;"/>
      <path d="M296.71,618.22c-2.21,0-4,1.79-4,4s1.79,4,4,4h28.32c2.21,0,4-1.79,4-4s-1.79-4-4-4h-28.32Z" style="fill: #dea96f;"/>
    </g>
  </g>
  <g>
    <path d="M914.75,291.92l87.92-43.67c3.13-1.56,5-4.86,4.72-8.34-.28-3.48-2.65-6.45-5.98-7.48l-142.55-44.32c-4.51-1.4-9.3,1.12-10.7,5.63-1.4,4.51,1.11,9.3,5.62,10.7l122.18,37.99-79.47,39.47c-2.47,1.22-4.19,3.56-4.64,6.28-.45,2.72.45,5.48,2.39,7.43l92.21,92.2-62.36,62.36-92.2-92.21c-1.95-1.95-4.71-2.83-7.43-2.39-2.72.45-5.05,2.17-6.28,4.64l-39.47,79.47-89.01-286.26,98.64,30.68c4.51,1.4,9.3-1.12,10.71-5.63,1.4-4.51-1.12-9.3-5.63-10.71l-114.18-35.5c-3.03-.94-6.34-.13-8.58,2.12s-3.06,5.55-2.12,8.59l100.18,322.16c1.03,3.34,4,5.71,7.48,5.99.23.02.46.03.69.03,3.22,0,6.2-1.82,7.66-4.75l43.67-87.92,89.84,89.84c3.34,3.34,8.75,3.34,12.1,0l74.45-74.45c3.34-3.34,3.34-8.75,0-12.09l-89.84-89.84Z" style="fill: #6f84de;"/>
    <path d="M614.25,65.87c-3.34-3.34-8.75-3.34-12.1,0-3.34,3.34-3.34,8.75,0,12.1l21.74,21.74c1.67,1.67,3.86,2.51,6.05,2.51s4.38-.84,6.05-2.51c3.34-3.34,3.34-8.75,0-12.09l-21.74-21.74Z" style="fill: #6f84de;"/>
    <path d="M723.45,102.21c2.19,0,4.38-.84,6.05-2.51l21.74-21.74c3.34-3.34,3.34-8.75,0-12.1s-8.75-3.34-12.09,0l-21.74,21.74c-3.34,3.34-3.34,8.75,0,12.09,1.67,1.67,3.86,2.51,6.05,2.51Z" style="fill: #6f84de;"/>
    <path d="M676.7,82.85c4.72,0,8.55-3.83,8.55-8.55v-30.75c0-4.72-3.83-8.55-8.55-8.55s-8.55,3.83-8.55,8.55v30.75c0,4.72,3.83,8.55,8.55,8.55Z" style="fill: #6f84de;"/>
    <path d="M619.13,140.42c0-4.72-3.83-8.55-8.55-8.55h-30.75c-4.72,0-8.55,3.83-8.55,8.55s3.83,8.55,8.55,8.55h30.75c4.72,0,8.55-3.83,8.55-8.55Z" style="fill: #6f84de;"/>
  </g>
</svg>