<svg fill="none" height="24" viewBox="0 0 24 24" width="24" xmlns="http://www.w3.org/2000/svg"><path d="m15 11.7451 5-2.77781v7.79681c0 1.1363-.642 2.1751-1.6584 2.6833l-4 2c-.727.3635-1.5287.5528-2.3416.5528s-1.6146-.1893-2.34164-.5528l-4-2c-1.01635-.5082-1.65836-1.547-1.65836-2.6833v-2.618l7.4472 3.7236c.1717.0858.3609.1305.5528.1305s.3812-.0447.5528-.1305l1.8944-.9472c.3388-.1694.5528-.5157.5528-.8944z" fill="#c4e6ff"/><g clip-rule="evenodd" fill-rule="evenodd"><path d="m5 9.66675c.55228 0 1 .44775 1 .99995v6.0973c0 .3788.214.725.55279.8944l4.00001 2c.4493.2247.9448.3417 1.4472.3417s.9979-.117 1.4472-.3417l4-2c.3388-.1694.5528-.5156.5528-.8944v-6.0973c0-.5522.4477-.99995 1-.99995s1 .44775 1 .99995v6.0973c0 1.1363-.642 2.1751-1.6584 2.6833l-4 2c-.727.3635-1.5287.5528-2.3416.5528s-1.6146-.1893-2.34164-.5528l-4-2c-1.01635-.5082-1.65836-1.547-1.65836-2.6833v-6.0973c0-.5522.44772-.99995 1-.99995z" fill="#1e93ff"/><path d="m9.6402 2.61149c.7219-.40104 1.534-.61149 2.3598-.61149s1.6379.21045 2.3598.61149l7.6888 4.27153c.5872.32624.9514.94521.9514 1.61698s-.3642 1.29074-.9514 1.617l-7.6888 4.2715c-.7219.401-1.534.6115-2.3598.6115s-1.6379-.2105-2.3598-.6115l-7.68876-4.2715c-.58724-.32626-.95144-.94523-.95144-1.617s.3642-1.29074.95144-1.61698zm2.3599 1.38851c-.4859 0-.9638.12383-1.3886.3598l-7.45232 4.1402 7.45232 4.1402c.4248.236.9027.3598 1.3886.3598.4858 0 .9637-.1238 1.3885-.3598l7.4523-4.1402-7.4523-4.1402c-.4248-.23597-.9027-.3598-1.3885-.3598z" fill="#024493"/></g></svg>