<?xml version="1.0" encoding="UTF-8"?>
<svg id="Layer_1" data-name="Layer 1" xmlns="http://www.w3.org/2000/svg" viewBox="0 0 512 512">
  <defs>
    <style>
      .cls-1 {
        fill: #628dba;
        fill-rule: evenodd;
      }

      .cls-2 {
        fill: #fec929;
      }
    </style>
  </defs>
  <path class="cls-2" d="M323.64,249.8l112.73-67.5v189.46c0,27.61-14.47,52.85-37.39,65.2l-90.18,48.6c-16.39,8.83-34.47,13.43-52.79,13.43s-36.4-4.6-52.79-13.43l-90.18-48.6c-22.91-12.35-37.39-37.59-37.39-65.2v-63.62l167.9,90.48c3.87,2.08,8.14,3.17,12.46,3.17s8.59-1.09,12.46-3.17l42.71-23.02c7.64-4.12,12.46-12.53,12.46-21.73v-104.08Z"/>
  <g>
    <path class="cls-1" d="M98.18,199.3c12.45,0,22.55,10.88,22.55,24.3v148.16c0,9.2,4.82,17.62,12.46,21.73l90.18,48.6c10.13,5.46,21.3,8.3,32.63,8.3s22.5-2.84,32.63-8.3l90.18-48.6c7.64-4.12,12.46-12.53,12.46-21.73v-148.16c0-13.42,10.09-24.3,22.55-24.3s22.55,10.88,22.55,24.3v148.16c0,27.61-14.47,52.85-37.39,65.2l-90.18,48.6c-16.39,8.83-34.47,13.43-52.79,13.43s-36.4-4.6-52.79-13.43l-90.18-48.6c-22.91-12.35-37.39-37.59-37.39-65.2v-148.16c0-13.42,10.09-24.3,22.55-24.3Z"/>
    <path class="cls-1" d="M202.8,27.86c16.28-9.75,34.58-14.86,53.2-14.86s36.93,5.11,53.2,14.86l173.35,103.8c13.24,7.93,21.45,22.97,21.45,39.29s-8.21,31.36-21.45,39.29l-173.35,103.8c-16.28,9.74-34.58,14.86-53.2,14.86s-36.93-5.12-53.2-14.86L29.45,210.24c-13.24-7.93-21.45-22.97-21.45-39.29s8.21-31.36,21.45-39.29L202.8,27.86ZM256,61.6c-10.95,0-21.73,3.01-31.31,8.74L56.68,170.95l168.02,100.61c9.58,5.73,20.35,8.74,31.31,8.74s21.73-3.01,31.3-8.74l168.02-100.61-168.02-100.61c-9.58-5.73-20.35-8.74-31.3-8.74Z"/>
  </g>
</svg>