<?xml version="1.0" encoding="UTF-8"?>
<svg id="Layer_1" data-name="Layer 1" xmlns="http://www.w3.org/2000/svg" viewBox="0 0 1108 680">
  <path d="M621.59,76.91h-334.05c-3.87,0-7,3.13-7,7v189.23h-118c-15.41,0-27.95,12.54-27.95,27.95v100.12c0,11.45,6.93,21.32,16.81,25.63v15.93c0,10.46,8.51,18.97,18.97,18.97h66.25c10.46,0,18.97-8.51,18.97-18.97v-13.61h13.8c3.87,0,7-3.13,7-7v-99.07h37.98c11.98,0,22.35-4.29,30.82-12.77l5.07-5.07h271.34c3.87,0,7-3.13,7-7V83.91c0-3.87-3.14-7-7-7h0ZM241.59,442.77c0,2.74-2.23,4.97-4.97,4.97h-66.25c-2.74,0-4.97-2.23-4.97-4.97v-13.61h12.13c3.87,0,7-3.13,7-7v-30.4h52.08c2.74,0,4.97,2.23,4.97,4.97v46.04h0ZM335.29,300.42c-5.83,5.83-12.68,8.67-20.92,8.67h-44.98c-3.87,0-7,3.13-7,7v99.07h-6.8v-18.43c0-10.46-8.51-18.97-18.97-18.97h-52.08v-61.67c0-3.87-3.13-7-7-7s-7,3.13-7,7v99.07h-8c-7.69,0-13.95-6.26-13.95-13.95v-100.12c0-7.69,6.26-13.95,13.95-13.95h144.51c6.85,0,13.04-2.56,17.88-7.41l28.54-28.54c4.28-4.28,11.24-4.28,15.52,0,0,0,0,0,0,0,0,0,0,0,0,0,4.27,4.28,4.27,11.24,0,15.52l-33.7,33.71ZM614.59,291.25h-250.34l14.64-14.64c8.02-8.02,9.43-20.18,4.24-29.66l43.91-43.91c2.73-2.73,2.73-7.17,0-9.9s-7.17-2.73-9.9,0l-43.91,43.91c-9.48-5.19-21.64-3.78-29.66,4.24l-28.54,28.54c-2.26,2.26-4.79,3.31-7.99,3.31h-12.51V90.91h320.05v200.34ZM223.46,261.02c24.7,0,44.79-20.09,44.79-44.79s-20.09-44.79-44.79-44.79-44.79,20.09-44.79,44.79,20.09,44.79,44.79,44.79ZM223.46,185.43c16.98,0,30.79,13.81,30.79,30.79s-13.81,30.79-30.79,30.79-30.79-13.81-30.79-30.79,13.81-30.79,30.79-30.79ZM586.46,396.03c0-23.82-19.38-43.2-43.21-43.2s-43.21,19.38-43.21,43.21,19.38,43.21,43.21,43.21,43.21-19.38,43.21-43.21h0ZM514.04,396.03c0-16.1,13.1-29.2,29.21-29.2s29.21,13.1,29.21,29.2-13.1,29.21-29.21,29.21-29.21-13.1-29.21-29.21ZM543.25,446.11c-47.06,0-85.35,38.29-85.35,85.34,0,9.22,5.04,22.06,29.07,30.91,14.96,5.51,34.95,8.54,56.28,8.54,42.48,0,85.35-12.2,85.35-39.45,0-47.06-38.29-85.34-85.34-85.34h0ZM543.25,556.91c-40.01,0-71.35-11.18-71.35-25.45,0-39.34,32.01-71.34,71.35-71.34s71.34,32.01,71.34,71.34c0,14.27-31.34,25.45-71.35,25.45ZM409.1,396.03c0-23.82-19.38-43.2-43.21-43.2s-43.21,19.38-43.21,43.21,19.38,43.21,43.21,43.21,43.21-19.38,43.21-43.21h0ZM336.68,396.03c0-16.1,13.1-29.2,29.21-29.2s29.21,13.1,29.21,29.2-13.1,29.21-29.21,29.21-29.21-13.1-29.21-29.21ZM365.89,446.11c-47.06,0-85.35,38.29-85.35,85.34,0,9.22,5.04,22.06,29.07,30.91,14.96,5.51,34.95,8.54,56.28,8.54,42.48,0,85.35-12.2,85.35-39.45,0-47.06-38.29-85.34-85.34-85.34h0ZM365.88,556.91c-40.01,0-71.35-11.18-71.35-25.45,0-39.34,32.01-71.34,71.35-71.34s71.34,32.01,71.34,71.34c0,14.27-31.34,25.45-71.35,25.45ZM333.36,174.19c0-3.87,3.13-7,7-7h228.4c3.87,0,7,3.13,7,7s-3.13,7-7,7h-228.4c-3.87,0-7-3.13-7-7h0ZM575.77,214.44c0,3.87-3.13,7-7,7h-114.2c-3.87,0-7-3.13-7-7s3.13-7,7-7h114.2c3.87,0,7,3.13,7,7ZM333.36,133.95c0-3.87,3.13-7,7-7h228.4c3.87,0,7,3.13,7,7s-3.13,7-7,7h-228.4c-3.87,0-7-3.14-7-7Z" style="fill: #6f84de;"/>
  <g>
    <path d="M821.87,582.4h132.78c9.02,0,16.33-7.32,16.34-16.34v-25.54s.02-.05.02-.08v-133.5c-.02-10.99-8.93-19.9-19.92-19.91h-129.39c-12.39.02-22.42,10.05-22.44,22.44v150.38c.04,12.46,10.15,22.55,22.62,22.56ZM964.49,406.94v130.25h-136.14v-143.65h122.72c7.4,0,13.4,6,13.41,13.41h0ZM821.69,393.54h.15v143.65c-6.05,0-11.84,2.44-16.08,6.77v-134.49c.02-8.79,7.14-15.91,15.93-15.93ZM821.87,543.69h142.62v22.36c0,5.43-4.41,9.83-9.84,9.83h-132.78c-8.89,0-16.1-7.21-16.1-16.1s7.21-16.1,16.1-16.1h0Z" style="fill: #dea96f;"/>
    <path d="M845.63,463.34h96.74c1.8,0,3.26-1.46,3.26-3.26v-44.49c0-1.8-1.46-3.26-3.26-3.26h-96.74c-1.8,0-3.26,1.46-3.26,3.26v44.49c0,1.8,1.46,3.26,3.26,3.26ZM848.89,418.85h90.23v37.97h-90.23v-37.97Z" style="fill: #dea96f;"/>
    <path d="M845.63,483.5h51.36c1.8,0,3.26-1.46,3.26-3.26s-1.46-3.26-3.26-3.26h-51.36c-1.8,0-3.26,1.46-3.26,3.26s1.46,3.26,3.26,3.26Z" style="fill: #dea96f;"/>
    <path d="M845.63,500.94h51.36c1.8,0,3.26-1.46,3.26-3.26s-1.46-3.26-3.26-3.26h-51.36c-1.8,0-3.26,1.46-3.26,3.26s1.46,3.26,3.26,3.26Z" style="fill: #dea96f;"/>
    <path d="M897,511.86h-51.36c-1.8,0-3.26,1.46-3.26,3.26s1.46,3.26,3.26,3.26h51.36c1.8,0,3.26-1.46,3.26-3.26s-1.46-3.26-3.26-3.26Z" style="fill: #dea96f;"/>
    <path d="M834.6,563.03h109.34c1.8,0,3.26-1.46,3.26-3.26s-1.46-3.26-3.26-3.26h-109.34c-1.8,0-3.26,1.46-3.26,3.26s1.46,3.26,3.26,3.26Z" style="fill: #dea96f;"/>
  </g>
</svg>